<svg width="90" height="32" viewBox="0 0 90 32" fill="none" xmlns="http://www.w3.org/2000/svg">
<path d="M73.9066 0C70.3189 0 66.9875 1.17882 64.2711 3.17769C61.5547 1.17882 58.2232 0 54.6355 0C51.0478 0 47.7164 1.17882 45 3.17769C42.2836 1.17882 39.0034 0 35.3645 0C31.7768 0 28.4453 1.17882 25.7289 3.17769C23.0638 1.17882 19.7323 0 16.0934 0C7.22664 0 0 7.12415 0 15.8884C0 24.6526 7.22664 31.7768 16.0934 31.7768C19.6811 31.7768 23.0125 30.5979 25.7289 28.5991C28.4453 30.5979 31.7768 31.7768 35.3645 31.7768C38.9522 31.7768 42.2836 30.5979 45 28.5991C47.6652 30.5979 50.9966 31.7768 54.6355 31.7768C58.2232 31.7768 61.5547 30.5979 64.2711 28.5991C66.9362 30.5979 70.2677 31.7768 73.9066 31.7768C82.7733 31.7768 90 24.6526 90 15.8884C90 7.12415 82.7733 0 73.9066 0ZM64.2711 24.0888C62.3235 21.885 61.1446 19.0148 61.1446 15.8884C61.1446 12.762 62.3235 9.89181 64.2711 7.68793C66.2187 9.89181 67.3975 12.762 67.3975 15.8884C67.3975 19.0148 66.2187 21.885 64.2711 24.0888ZM45 24.0888C43.0524 21.885 41.8736 19.0148 41.8736 15.8884C41.8736 12.762 43.0524 9.89181 45 7.68793C46.9476 9.89181 48.1264 12.762 48.1264 15.8884C48.1264 19.0148 46.9476 21.885 45 24.0888ZM25.7289 24.0888C23.7813 21.885 22.6025 19.0148 22.6025 15.8884C22.6025 12.762 23.7813 9.89181 25.7289 7.68793C27.6765 9.89181 28.8554 12.762 28.8554 15.8884C28.9067 19.0148 27.6765 21.885 25.7289 24.0888ZM3.33143 15.8884C3.33143 8.96925 9.07174 3.33143 16.0934 3.33143C18.7073 3.33143 21.1674 4.10023 23.2175 5.48405C20.7574 8.25171 19.2711 11.8907 19.2711 15.8884C19.2711 19.8861 20.7574 23.5251 23.2175 26.2927C21.1674 27.6253 18.7585 28.4453 16.0934 28.4453C9.07174 28.4453 3.33143 22.8075 3.33143 15.8884ZM28.2403 26.2927C30.7005 23.5251 32.1868 19.8861 32.1868 15.8884C32.1868 11.8907 30.7005 8.25171 28.2403 5.48405C30.2904 4.15147 32.6993 3.33143 35.3645 3.33143C38.0296 3.33143 40.4385 4.10023 42.4886 5.48405C40.0285 8.25171 38.4909 11.8907 38.4909 15.8884C38.4909 19.8861 39.9772 23.5251 42.4886 26.2927C40.4385 27.6253 38.0296 28.4453 35.3645 28.4453C32.7506 28.4453 30.2904 27.6253 28.2403 26.2927ZM47.5114 26.2927C49.9715 23.5251 51.5091 19.8861 51.5091 15.8884C51.5091 11.8907 50.0228 8.25171 47.5114 5.48405C49.5615 4.15147 51.9704 3.33143 54.6355 3.33143C57.3007 3.33143 59.7096 4.10023 61.7597 5.48405C59.2995 8.25171 57.762 11.8907 57.762 15.8884C57.762 19.8861 59.2483 23.5251 61.7597 26.2927C59.7096 27.6253 57.3007 28.4453 54.6355 28.4453C51.9704 28.4453 49.5615 27.6253 47.5114 26.2927ZM73.9066 28.4453C71.2927 28.4453 68.8326 27.6765 66.7824 26.2927C69.2426 23.5251 70.7802 19.8861 70.7802 15.8884C70.7802 11.8907 69.2938 8.25171 66.7824 5.48405C68.8326 4.15147 71.2415 3.33143 73.9066 3.33143C80.9282 3.33143 86.6686 8.96925 86.6686 15.8884C86.6686 22.8075 80.9282 28.4453 73.9066 28.4453Z" fill="#070707"/>
</svg>
