<svg width="90" height="90" viewBox="0 0 90 90" fill="none" xmlns="http://www.w3.org/2000/svg">
<path d="M71.6673 44.9992C71.6673 59.7364 59.7379 71.6659 45.0006 71.6659V44.9992H71.6673ZM45.0006 18.3325V44.9992H18.334C18.334 30.2619 30.2634 18.3325 45.0006 18.3325Z" fill="#070707"/>
<path d="M45 18.3333V19.7954C58.8965 19.7954 70.2046 31.1009 70.2046 45H71.6667C71.6667 30.2733 59.7267 18.3333 45 18.3333ZM45 70.2046C31.1035 70.2046 19.7954 58.8991 19.7954 45H18.3333C18.3333 59.7267 30.2733 71.6667 45 71.6667M45 0C20.1479 0 0 20.1479 0 45C0 69.8521 20.1479 90 45 90C69.8521 90 90 69.8521 90 45C90 20.1479 69.8521 0 45 0ZM87.0737 45C87.0737 68.2355 68.2382 87.0737 45 87.0737C21.7618 87.0737 2.92627 68.2355 2.92627 45C2.92627 21.7645 21.7645 2.92627 45 2.92627C68.2355 2.92627 87.0737 21.7645 87.0737 45Z" fill="#070707"/>
<path d="M25.7696 23.2912C27.2076 21.787 28.0218 20.0491 26.5838 18.39C25.8013 17.4896 24.4876 17.2927 23.3985 17.7364L23.2901 17.7784L23.3245 17.6839C23.4857 17.256 23.5888 15.8909 22.4178 14.9485C21.8469 14.4891 21.1305 14.3184 20.4062 14.3919C19.0555 14.5284 18.0166 15.4446 15.1882 18.5764C14.3344 19.5215 13.092 21.0126 12.3466 21.9786L20.1155 29.2975C22.6901 26.4676 23.7395 25.4149 25.7696 23.2912ZM15.6323 21.5008C17.1972 19.6002 18.8599 17.8755 19.6132 17.193C19.8511 16.9777 20.1102 16.7624 20.4247 16.6784C20.9349 16.5393 21.4609 16.8989 21.5799 17.4187C21.6988 17.9411 21.3684 18.4373 21.001 18.8468C20.1736 19.7735 17.139 22.9263 17.139 22.9263L15.6323 21.5008ZM18.6748 24.3675C18.6748 24.3675 21.6301 21.2646 22.5949 20.2723C22.9782 19.8785 23.2241 19.6396 23.4884 19.511C23.8294 19.3456 24.2021 19.3115 24.5352 19.532C24.8629 19.7499 25.0136 20.1253 24.9317 20.498C24.8339 20.9417 24.4691 21.3643 24.1677 21.6872C23.7607 22.1204 20.2555 25.8455 20.2503 25.8507L18.6748 24.3675ZM45.8883 14.5626L48.3757 9.02874L48.5343 8.53784L48.4894 9.04974L48.7511 16.4448C49.6234 16.5262 50.5248 16.6469 51.413 16.7939L51.0085 5.84181C49.7661 5.7053 48.529 5.60817 47.2919 5.55566L44.8415 11.5961L44.7543 12.045L44.6671 11.5961L42.2193 5.55566C40.9822 5.60817 39.7451 5.7053 38.5027 5.84181L38.0983 16.7939C38.9865 16.6469 39.8879 16.5288 40.7602 16.4448L41.0219 9.04974L40.9769 8.53784L41.1355 9.02874L43.6229 14.5626H45.8883ZM66.5462 26.0109C67.1569 26.6619 68.0371 27.712 68.5314 28.3499L77.6352 22.6113C77.1805 22.0206 76.4562 21.1228 75.9143 20.4902L70.1492 24.2756L69.7553 24.6117L70.0487 24.1864L72.5943 19.1408L70.7941 17.3531L65.7109 19.8811L65.2827 20.1725L65.6237 19.7814L69.4381 14.0585C68.7667 13.4915 68.1217 12.9717 67.2996 12.3417L61.5212 21.3748C62.2534 21.934 63.2182 22.7557 63.8341 23.3148L69.2742 20.5112L69.6231 20.2565L69.3667 20.603L66.5462 26.0109Z" fill="#070707"/>
</svg>
