<svg width="90" height="33" viewBox="0 0 90 33" fill="none" xmlns="http://www.w3.org/2000/svg">
<path fill-rule="evenodd" clip-rule="evenodd" d="M0 16.1965C0 7.23932 20.1372 0 45 0C69.8648 0 90 7.23898 90 16.1965C90 25.1505 69.8645 32.3922 45 32.3922C20.1386 32.3922 0 25.1509 0 16.1965ZM32.0638 4.89111C32.6863 4.84017 33.3047 4.81624 33.9199 4.8143C36.7489 4.80543 39.5111 5.26434 42.2999 5.72767C43.7564 5.96965 45.2201 6.21284 46.7045 6.39123C50.4925 6.84501 54.1247 6.85457 57.9322 5.98852C58.3822 5.89157 58.6983 6.17604 58.669 6.62608C58.6316 7.27714 58.1227 7.90368 56.8685 8.58094C55.4426 9.35549 53.9507 9.59017 52.3924 9.60276C49.8007 9.62405 47.3311 8.94279 44.8598 8.2611C43.738 7.95163 42.6158 7.64207 41.4817 7.39811C41.4826 7.424 41.4844 7.45074 41.4863 7.47778C41.4958 7.61487 41.5059 7.7598 41.3945 7.84248C39.3828 9.31198 37.564 10.8041 36.3459 12.8995C36.3047 12.9482 36.3272 12.9945 36.3979 12.9894C36.7383 12.9715 37.0676 12.9566 37.3906 12.942C38.0716 12.9111 38.7245 12.8816 39.3941 12.8285C39.5665 12.8142 39.573 12.7721 39.5574 12.6469C39.4707 11.9248 39.6832 11.1008 40.3254 10.5344C40.9819 9.95102 41.8047 9.88473 42.3493 10.3048C42.9698 10.7831 42.9151 11.6434 42.5759 12.288C42.2306 12.9428 41.6609 13.2928 41.1132 13.4629C41.1132 13.4629 40.9993 13.4878 41.0157 13.5909C41.029 13.6905 41.3049 13.8786 41.536 14.0362C41.6883 14.14 41.8212 14.2306 41.8466 14.2738C41.9078 14.3775 41.8766 14.5386 41.7633 14.6617C41.6837 14.7509 41.5606 14.8351 41.4024 14.8317C41.2779 14.8297 41.2012 14.7884 41.0475 14.7058L41.0333 14.6981C40.6985 14.5185 40.2806 14.2235 40.0023 13.8758C39.9071 13.7585 39.8588 13.7558 39.6214 13.7688C38.5533 13.83 36.8867 13.9891 35.7581 14.1289C35.4846 14.1626 35.4445 14.213 35.388 14.3068L35.2685 14.5021C33.5035 17.3848 31.6202 20.4607 29.5576 22.535C27.2947 24.8094 25.4142 25.4083 23.4177 25.4238C20.9087 25.4415 18.6986 23.9063 18.4452 21.2486C18.304 19.7757 18.7244 18.4633 19.566 17.3823C20.3126 16.419 21.5764 15.6185 22.6458 15.4229C22.9942 15.3596 23.4619 15.4001 23.6548 15.628C23.9582 15.9777 23.8711 16.3614 23.568 16.5145C22.7516 16.9271 21.77 17.6336 21.2842 18.5977C20.8896 19.3848 20.8103 20.3336 21.4124 21.2374C22.4199 22.7433 25.2284 22.7848 27.8395 20.3829C28.4858 19.7951 29.0643 19.2304 29.6525 18.5613C30.8026 17.2595 31.1854 16.7849 32.7141 14.6851C32.7324 14.6613 32.7372 14.6291 32.7294 14.6138C32.7168 14.5865 32.6953 14.5794 32.6508 14.5767C31.6303 14.6046 30.7404 14.9059 29.8761 15.5461C29.6271 15.7254 29.2684 15.7002 29.1116 15.4635C28.9371 15.1965 29.062 14.8475 29.3498 14.6508C30.6147 13.7799 31.9857 13.5571 33.3908 13.3288C33.5311 13.306 33.6718 13.2831 33.8127 13.2595C33.8113 13.2595 33.9206 13.2649 34.0094 13.1479C34.2787 12.8055 34.5202 12.4773 34.7606 12.1506C35.0886 11.7048 35.4146 11.2618 35.8064 10.7893C36.4905 9.95861 37.3749 9.19596 38.0504 8.62313C38.8625 7.93125 39.4239 7.63534 39.9568 7.35447C40.0423 7.30944 40.127 7.26481 40.2118 7.21899C40.3734 7.13565 40.1907 7.03529 40.1417 7.03529C39.8891 6.9883 39.6357 6.94028 39.3817 6.89215C36.1869 6.28671 32.8951 5.66287 29.7386 6.81996C27.3796 7.6918 26.3458 9.54459 26.8431 10.7828C27.1969 11.6604 28.3637 11.8032 29.4552 11.2739C30.4069 10.8098 31.2157 10.0974 31.7963 9.21199C32.1297 8.70515 32.8302 9.07082 32.452 9.95115C31.455 12.2714 29.5505 14.1117 27.2306 14.1896C25.2563 14.2529 23.9821 12.8149 23.9865 11.0403C23.9937 7.54071 27.9292 5.2357 32.0638 4.89111ZM41.52 10.887C41.609 10.8917 41.6922 10.9213 41.7596 10.9784C41.9603 11.1482 41.8653 11.5717 41.6626 11.8649C41.4411 12.1884 41.0655 12.4676 40.723 12.5357C40.6543 12.5483 40.5948 12.519 40.5666 12.3683C40.5108 11.9693 40.6418 11.435 41.0725 11.0584C41.2073 10.9404 41.3717 10.8792 41.52 10.887ZM70.9485 10.9641H70.9474C70.5396 10.9644 70.1276 10.9647 69.7631 10.9647C69.5913 10.9647 69.5025 10.9855 69.4212 11.1436C69.246 11.4763 67.779 13.6779 66.6251 15.4097L66.6247 15.4103C66.0267 16.3079 65.5128 17.0791 65.3065 17.3983C65.2052 17.5405 65.0807 17.5207 65.0664 17.3584C65.0052 16.8033 64.5211 16.1651 63.7581 15.8597C63.1764 15.626 62.6077 15.5838 62.0168 15.6614C60.9497 15.8032 59.9991 16.3612 59.163 16.9894C58.6358 17.3865 58.139 17.8324 57.6366 18.2834C56.9384 18.9101 56.2295 19.5464 55.4136 20.0746C54.6475 20.5688 53.5988 21 52.8971 20.357C52.262 19.774 52.3334 18.4787 53.3052 17.4772C53.4076 17.3721 53.5305 17.4598 53.5111 17.554C53.4193 18.0071 53.5322 18.4576 53.8795 18.7736C54.3034 19.1495 54.9101 19.1923 55.4292 18.9413C56.0422 18.6409 56.4022 18.0602 56.5076 17.4009C56.6699 16.3787 55.8749 15.4771 54.881 15.4049C54.0731 15.3488 53.2986 15.6271 52.5441 16.2441C52.1655 16.5547 51.9501 16.7846 51.6232 17.2452C51.5433 17.3588 51.4208 17.3704 51.4249 17.2027C51.4627 15.8941 50.9156 15.1577 49.8227 15.1335C48.975 15.1138 48.0686 15.5688 47.3624 16.1267C46.7818 16.5884 46.2559 17.1627 45.7232 17.7444C45.5455 17.9383 45.3672 18.1331 45.1857 18.3248C45.0956 18.4194 45.0167 18.415 44.9915 18.2317C44.9694 17.3646 44.7492 16.5247 44.3437 15.9284C44.2005 15.7209 43.8988 15.6181 43.645 15.7583C43.6231 15.7702 43.591 15.7864 43.5513 15.8064C43.3791 15.8932 43.0647 16.0516 42.8239 16.2438C42.6766 16.3638 42.6197 16.5376 42.6844 16.7604C43.0756 18.0554 42.9895 19.5283 42.4588 20.7726C41.9714 21.9115 41.0241 22.9395 39.9111 23.2871C39.1777 23.5174 38.415 23.4048 37.9432 22.7609C37.2952 21.8724 37.5572 20.3274 38.5226 19.044C39.3754 17.9146 40.6078 17.1968 41.8382 16.7345C41.9831 16.6794 42.0126 16.5877 41.9718 16.466C41.9296 16.3396 41.8717 16.1848 41.8238 16.0563C41.7955 15.9808 41.7707 15.9143 41.7545 15.8681C41.6419 15.5712 41.3258 15.5225 40.9404 15.5644C40.0468 15.6674 39.241 15.9705 38.4447 16.3927C36.3595 17.4982 35.3145 19.6378 34.8559 20.7828C34.6355 21.3322 34.4468 21.6758 34.2029 21.9799C33.8743 22.3891 33.4617 22.7612 32.7072 23.4174C32.6392 23.4776 32.5882 23.6031 32.6453 23.7194C32.7225 23.8776 33.1147 24.4259 33.2256 24.4749C33.3484 24.5348 33.4908 24.4512 33.548 24.4104C34.0759 24.0563 34.7076 23.4946 35.0168 23.1136C35.125 22.9834 35.2367 23.0382 35.2942 23.2362C35.5826 24.2553 36.338 25.0872 37.3826 25.4352C39.2943 26.0737 41.2775 25.1496 42.7742 23.541C43.4196 22.8473 43.7852 22.3215 44.0674 21.9155C44.2011 21.7232 44.316 21.5578 44.4332 21.4142C44.5324 21.2925 44.647 21.1466 44.7757 20.983C45.4483 20.1271 46.5031 18.7852 47.7216 17.8711C48.2539 17.4698 48.8843 17.1636 49.2013 17.3667C49.4554 17.5299 49.5374 17.9091 49.1292 18.6439C48.2123 20.3021 47.0271 22.1401 46.1631 23.4799C45.6328 24.3022 45.2235 24.9369 45.0717 25.2271C44.9989 25.3594 45.0624 25.4631 45.2023 25.4631C45.7898 25.4606 46.3736 25.4609 46.9282 25.4612H46.9301L47.448 25.4614C47.5647 25.4559 47.6175 25.4033 47.676 25.3213C47.9458 24.9031 48.2118 24.4898 48.476 24.0792C49.324 22.7614 50.1531 21.4732 51.0266 20.1523C51.0912 20.0502 51.1501 20.1293 51.1525 20.1739C51.1763 20.5756 51.2758 21.1257 51.5167 21.487C51.95 22.1544 52.5638 22.4411 53.2448 22.4455C53.7863 22.4516 54.0601 22.37 54.6442 22.154C55.0528 22.0022 55.4394 21.7967 55.794 21.543C55.9651 21.4257 55.9949 21.6224 55.9905 21.6527C55.7279 23.0504 56.0524 24.7062 57.4553 25.393C59.1343 26.2128 60.9787 25.0607 62.04 24.0208C62.1437 23.9205 62.2557 23.931 62.2662 24.1467C62.2887 24.544 62.4697 25.0152 62.8017 25.3452C63.6908 26.2289 65.4856 25.8788 67.2867 24.4981C68.4433 23.6147 69.6532 22.366 70.7461 21.0438C70.7866 20.9928 70.8168 20.9101 70.7385 20.8271C70.6294 20.7142 70.4885 20.5906 70.358 20.476C70.2891 20.4156 70.2232 20.3577 70.1662 20.3052C70.091 20.2419 69.9804 20.26 69.9168 20.308C69.5997 20.6066 69.2915 20.9171 68.9796 21.2314C68.1898 22.0274 67.3757 22.8477 66.3305 23.561C65.8389 23.9005 65.0559 24.1747 64.7038 23.7032C64.5667 23.5202 64.5825 23.2667 64.7175 22.9344C65.022 22.1833 68.553 16.7769 70.6653 13.5427C71.5051 12.2568 72.1207 11.3143 72.22 11.1444L72.2207 11.1436C72.2806 11.0395 72.2173 10.9635 72.0847 10.9635C71.7432 10.9635 71.3493 10.9638 70.9511 10.9641L70.9497 10.9641H70.9485ZM63.1486 17.4081C62.9984 17.3367 62.8335 17.3031 62.6573 17.3046C61.894 17.3113 60.9201 17.9771 60.0229 19.0705C59.1174 20.172 58.6286 21.2924 58.6105 22.3843C58.6037 22.7725 58.7531 23.2518 59.0994 23.4301C59.8783 23.8369 60.8205 23.2318 61.4991 22.6756C61.9495 22.3096 62.3211 21.9296 62.6503 21.4422L62.7167 21.345L62.7991 21.225C63.085 20.8093 63.3129 20.4778 63.5582 19.9577C63.598 19.876 63.5781 19.8509 63.5431 19.838C63.4428 19.8023 63.3409 19.7271 63.3272 19.6495C63.3194 19.6242 63.3167 19.5975 63.3192 19.5711C63.3218 19.5447 63.3296 19.5191 63.3422 19.4957C63.7126 18.7498 63.9773 17.7997 63.1486 17.4081ZM1.87763 16.0332C1.87763 24.2838 21.2859 30.9717 45.2278 30.9717C69.1667 30.9717 88.5747 24.2835 88.5747 16.0332C88.5747 7.7812 69.1674 1.09396 45.2278 1.09396C21.2862 1.09396 1.87763 7.78154 1.87763 16.0332ZM45.2278 2.38828C22.1271 2.38828 3.40155 8.49622 3.40155 16.0332C3.40155 23.5705 22.1264 29.6791 45.2278 29.6791C68.3282 29.6791 87.0507 23.5702 87.0507 16.0332C87.0507 8.49622 68.3269 2.38828 45.2278 2.38828Z" fill="#070707"/>
</svg>
