<svg width="16" height="20" viewBox="0 0 16 20" fill="none" xmlns="http://www.w3.org/2000/svg">
<path d="M13.7491 11.9991C14.9917 11.9991 15.999 13.0064 15.999 14.249V15.1541C15.999 16.2477 15.5216 17.2869 14.6918 17.9993C13.1264 19.3432 10.8861 20 7.99623 20C5.10681 20 2.86806 19.3434 1.30524 17.9998C0.476641 17.2874 0 16.249 0 15.1563V14.249C0 13.0064 1.00733 11.9991 2.24993 11.9991H13.7491ZM7.89479 0.00684647L7.99656 0C8.37624 0 8.69003 0.282146 8.73969 0.648211L8.74654 0.749978L8.74575 1.49896L12.2461 1.49946C13.4887 1.49946 14.496 2.50679 14.496 3.7494V8.25386C14.496 9.49646 13.4887 10.5038 12.2461 10.5038H3.74635C2.50375 10.5038 1.49642 9.49646 1.49642 8.25386V3.7494C1.49642 2.50679 2.50375 1.49946 3.74635 1.49946L7.24579 1.49896L7.24658 0.749978C7.24658 0.370294 7.52873 0.0565075 7.89479 0.00684647ZM5.74558 4.49938C5.05564 4.49938 4.49633 5.05868 4.49633 5.74863C4.49633 6.43857 5.05564 6.99788 5.74558 6.99788C6.43553 6.99788 6.99483 6.43857 6.99483 5.74863C6.99483 5.05868 6.43553 4.49938 5.74558 4.49938ZM10.2382 4.49938C9.54824 4.49938 8.98894 5.05868 8.98894 5.74863C8.98894 6.43857 9.54824 6.99788 10.2382 6.99788C10.9281 6.99788 11.4874 6.43857 11.4874 5.74863C11.4874 5.05868 10.9281 4.49938 10.2382 4.49938Z" fill="white"/>
</svg>
