<svg width="90" height="35" viewBox="0 0 90 35" fill="none" xmlns="http://www.w3.org/2000/svg">
<path d="M77.6653 33.9979C77.1991 33.8451 76.5792 33.5844 76.2878 33.4186C76.2259 33.3833 76.1728 33.3521 76.1306 33.3242C75.8334 33.1277 76.0727 33.0965 77.5327 33.0014C79.1371 32.8969 79.3556 32.8297 79.8107 32.3005C80.7209 31.2424 80.3012 30.2738 78.6189 29.5498C77.3468 29.0023 78.3171 29.1662 80.4243 29.8547C82.9325 30.6743 84.7366 30.6524 86.8834 29.7764C88.1305 29.2676 88.113 29.4497 87.1949 29.951C86.9439 30.088 86.6257 30.2489 86.2477 30.426C85.393 30.8263 84.628 30.9959 83.3792 31.0617L81.6764 31.1516L81.7578 31.8494C81.8233 32.41 81.6984 32.701 81.1224 33.3294C80.5422 33.9626 80.2252 34.1273 79.4592 34.1937C78.9388 34.2388 78.1315 34.1506 77.6653 33.9979ZM71.5199 30.5553C68.8726 29.0947 68.2084 28.9435 63.6792 28.7696C59.1117 28.5942 58.0277 28.3299 55.6853 26.8204C54.0413 25.761 51.844 23.5149 50.8586 21.8866C49.1262 19.024 48.3534 18.725 43.2298 18.9353C39.299 19.0966 35.6774 18.7928 33.291 18.1016L31.5762 17.6049L30.4629 18.1557C29.5064 18.6289 29.0811 18.705 27.4424 18.6967C25.8492 18.6885 25.2387 18.5782 23.734 18.0263C19.0659 16.3144 18.8353 16.2473 17.8424 16.3112C16.91 16.3713 16.8425 16.4157 16.7776 17.0111C16.7463 17.298 16.673 17.5466 16.5938 17.7097C16.4633 17.9781 16.3171 18.0148 16.3171 17.6092C16.3171 17.3671 16.1695 17.0464 15.989 16.8967C15.5272 16.5134 15.6908 15.8016 16.3171 15.4687C17.1022 15.0513 19.2629 15.2807 21.6149 16.0311C24.407 16.9218 25.5258 17.1482 27.1519 17.1516C28.8072 17.155 29.7146 16.7618 30.3118 15.7823C30.8173 14.9533 30.8565 13.2738 30.4092 11.6074C30.2371 10.9664 30.0952 10.4238 30.0938 10.4016C30.0925 10.3795 30.878 10.7763 31.8396 11.2835C32.8011 11.7906 34.3507 12.4762 35.2831 12.8071L36.9784 13.4086L35.5589 13.471C34.7768 13.5054 33.6035 13.3936 32.9463 13.2219C31.8415 12.9334 31.7646 12.9367 31.9054 13.2655C31.989 13.4608 32.1036 14.1732 32.1601 14.8487C32.2619 16.066 32.2715 16.0812 33.2432 16.562C36.3615 18.1048 37.9981 18.3673 44.1986 18.319L48.8759 18.2826L49.7185 18.84C50.3764 19.2753 50.7579 19.8039 51.4588 21.2509C52.9273 24.283 55.43 26.4017 58.3352 27.0721C58.8268 27.1856 60.6117 27.2824 62.3017 27.2873C67.2384 27.3015 69.706 28.0637 72.1556 30.3308C72.8549 30.978 73.3794 31.5037 73.3211 31.4991C73.2628 31.4944 72.4523 31.0697 71.5199 30.5553ZM74.898 27.8049C73.4704 26.9484 72.4239 26.0062 71.8219 25.0357C71.279 24.1605 70.6692 23.9426 68.1074 23.7086C65.9297 23.5096 64.0713 22.9162 63.5269 22.246C63.294 21.9592 63.312 21.9329 63.6535 22.0611C64.6384 22.4308 65.9847 22.646 68.382 22.8169C71.4596 23.0362 72.0174 23.3011 73.2203 25.1146C73.6656 25.7859 74.5423 26.8358 75.1684 27.4477C75.7945 28.0596 76.2731 28.5602 76.2319 28.5602C76.1907 28.5602 75.5904 28.2203 74.898 27.8049ZM81.5856 28.1131C80.1432 27.6777 75.71 25.4301 71.9437 23.2246C65.4759 19.4372 54.7466 13.844 54.9162 14.3482C54.9573 14.4702 56.2136 15.8582 57.7082 17.4328C59.2027 19.0074 60.3668 20.2957 60.295 20.2957C60.0065 20.2957 57.652 18.4275 56.1563 17.0117C54.2136 15.1727 53.0131 14.3371 50.8956 13.3496C49.4379 12.6698 49.0786 12.5896 47.4302 12.5761C45.3353 12.5589 45.4374 12.3493 47.6968 12.0288C48.5477 11.9081 49.2758 11.7775 49.3148 11.7384C49.4758 11.5774 37.5166 7.2404 33.4819 5.99663C30.7743 5.16197 28.1995 4.52834 28.0644 4.66346C28.0095 4.71829 28.1515 5.18032 28.3797 5.6902C28.608 6.20008 28.7569 6.65514 28.7106 6.70146C28.6643 6.74778 28.1898 6.40139 27.6562 5.9317C25.6213 4.14055 21.684 2.55609 17.8791 1.99717C15.7603 1.68593 14.9057 1.8189 13.8357 2.62626L13.1556 3.13948L14.7053 4.67158C16.7131 6.65661 17.2384 7.56032 15.6585 6.31146C14.2201 5.17453 12.8274 4.47518 11.175 4.06014C9.86997 3.73233 8.90052 3.26658 8.89996 2.96715C8.8998 2.88242 9.40044 2.84255 10.0125 2.87854C10.9001 2.93073 11.3593 2.8235 12.2814 2.34876C14.3311 1.29353 14.0645 1.15952 10.1449 1.27476C7.38104 1.35602 6.39015 1.46889 5.27402 1.82954C3.77516 2.31387 2.66769 3.03043 2.88203 3.37722C2.95739 3.49917 3.25633 3.35665 3.58434 3.04239C4.18675 2.46525 5.32132 2.30614 5.9335 2.71296C6.422 3.03759 4.98721 4.26216 3.58354 4.71861C1.24952 5.47757 0.445561 6.63444 1.74644 7.3621C2.50248 7.785 2.84083 7.57306 3.86875 6.03263C5.04218 4.27414 5.7892 4.0462 6.93683 5.09641C8.07321 6.13632 7.56583 8.17555 5.80437 9.64795C4.76014 10.5208 4.69509 10.6744 5.28977 10.8632C5.88628 11.0525 6.46134 10.6751 7.19003 9.61595C7.68314 8.89924 8.00292 8.65738 8.60733 8.54399C9.77007 8.32586 10.5955 7.39917 10.5955 6.312C10.5955 5.82917 10.4937 5.24389 10.3693 5.01138C10.1489 4.59951 10.1602 4.59752 10.811 4.93405C11.1784 5.12402 11.7674 5.74353 12.12 6.31074C12.7061 7.25359 12.8828 7.37899 14.181 7.77329C14.9619 8.0105 16.0243 8.50501 16.5418 8.87222C17.6228 9.63936 19.2839 11.193 19.2839 11.437C19.2839 11.5278 18.7681 11.2722 18.1378 10.869C13.6731 8.01298 10.4723 8.05206 7.06136 11.0043C5.45276 12.3965 4.21545 11.9085 4.29914 9.91495C4.34283 8.87427 4.36079 8.84599 4.90252 8.96488C5.3396 9.06081 5.55822 8.96366 5.90909 8.51759C6.41309 7.87686 6.47169 7.34668 6.11369 6.66654C5.5908 5.67313 4.80991 5.6209 4.33086 6.54728C4.09892 6.9958 4.0337 7.44811 4.12827 7.95223C4.26508 8.68149 4.25632 8.69297 3.67023 8.55273C3.34159 8.4741 2.69127 8.32725 2.22507 8.2264C1.25813 8.01723 0 6.75012 0 5.98546C0 5.70195 0.403553 5.14251 1.03232 4.55437C1.60009 4.02328 2.12635 3.3429 2.20177 3.0424C2.65962 1.21815 8.06566 -0.241002 13.3504 0.0332559C17.4549 0.246264 20.4884 0.761941 25.9591 2.17668C34.7636 4.45358 44.9066 8.56666 58.6993 15.4531C64.4241 18.3115 67.4533 19.9539 74.4386 23.9868C75.8108 24.7791 77.9087 25.8614 79.1006 26.392C80.989 27.2327 81.4994 27.3687 83.069 27.4494L84.8702 27.542L86.7203 26.5627C88.1216 25.8209 88.704 25.6169 89.1213 25.7216C89.8784 25.9116 90.2113 26.6897 89.8599 27.4477C89.5922 28.0249 89.5879 28.026 89.4112 27.56C89.1149 26.7789 88.3561 26.7613 86.6805 27.4967C84.9929 28.2374 82.8544 28.4962 81.5856 28.1131ZM2.75484 4.0514C2.75484 4.01137 2.67665 3.97861 2.58107 3.97861C2.31486 3.97861 0.635735 5.46705 0.635735 5.70303C0.635735 5.81743 1.11253 5.50899 1.69529 5.01761C2.27804 4.52622 2.75484 4.09143 2.75484 4.0514ZM4.78047 3.44404C5.17286 3.13625 5.16326 3.12404 4.57243 3.17915C4.23176 3.21093 3.91389 3.35612 3.86606 3.50181C3.74582 3.86798 4.2833 3.83402 4.78047 3.44404ZM12.8754 18.6534C11.7322 17.4516 11.9443 15.7571 13.423 14.2785C14.4849 13.2165 16.0007 12.7135 18.7162 12.5219L20.4858 12.397L20.1907 11.5404C19.8669 10.6008 20.0968 9.04542 20.6715 8.28707C20.9357 7.93847 20.9664 8.00213 20.9724 8.91234C20.9796 9.99731 21.4047 11.2354 21.9938 11.8874C22.4905 12.4372 24.1781 13.276 25.9591 13.8583C27.7168 14.433 27.5054 14.4632 24.5656 14.0572C20.5249 13.4991 18.0581 13.4241 16.5396 13.8131C14.3451 14.3753 13.1385 15.5759 13.1385 17.1971C13.1385 18.0585 13.9147 18.8104 14.8094 18.8156C15.245 18.8181 15.2955 18.8628 15.0457 19.0243C14.9445 19.0897 14.8341 19.14 14.7177 19.1759C14.5695 19.2217 14.4115 19.2439 14.2503 19.2438C13.7596 19.2435 13.2394 19.0362 12.8754 18.6534ZM9.09232 2.27106C8.64499 1.9946 8.88505 1.92529 10.7015 1.80644C12.1956 1.70869 12.3213 1.72702 11.761 1.96094C10.904 2.31877 9.44401 2.48842 9.09232 2.27106Z" fill="#070707"/>
<path fill-rule="evenodd" clip-rule="evenodd" d="M76.1306 33.3242C75.8334 33.1277 76.0727 33.0965 77.5327 33.0014C79.1371 32.8969 79.3556 32.8297 79.8107 32.3005C80.7209 31.2424 80.3012 30.2738 78.6189 29.5498C77.3468 29.0023 78.3171 29.1662 80.4243 29.8547C82.9325 30.6743 84.7366 30.6524 86.8834 29.7764C88.1305 29.2676 88.113 29.4497 87.1949 29.951C87.914 29.6059 89.4537 28.6221 89.8599 27.4477C89.5922 28.0249 89.5879 28.026 89.4112 27.56C89.1149 26.7789 88.3561 26.7613 86.6805 27.4967C84.9929 28.2374 82.8544 28.4962 81.5856 28.1131C80.1432 27.6777 75.71 25.4301 71.9437 23.2246C65.4759 19.4372 54.7466 13.844 54.9162 14.3482C54.9573 14.4702 56.2136 15.8582 57.7082 17.4328C59.2027 19.0074 60.3668 20.2957 60.295 20.2957C60.0065 20.2957 57.652 18.4275 56.1563 17.0117C54.2136 15.1727 53.0131 14.3371 50.8956 13.3496C49.4379 12.6698 49.0786 12.5896 47.4302 12.5761C45.3353 12.5589 45.4374 12.3493 47.6968 12.0288C48.5477 11.9081 49.2758 11.7775 49.3148 11.7384C49.4758 11.5774 37.5166 7.2404 33.4819 5.99663C30.7743 5.16197 28.1995 4.52834 28.0644 4.66346C28.0095 4.71829 28.1515 5.18032 28.3797 5.6902C28.608 6.20008 28.7569 6.65514 28.7106 6.70146C28.6643 6.74778 28.1898 6.40139 27.6562 5.9317C25.6213 4.14055 21.684 2.55609 17.8791 1.99717C15.7603 1.68593 14.9057 1.8189 13.8357 2.62626L13.1556 3.13948L14.7053 4.67158C16.7131 6.65661 17.2384 7.56032 15.6585 6.31146C14.2201 5.17453 12.8274 4.47518 11.175 4.06014C9.86997 3.73233 8.90052 3.26658 8.89996 2.96715C8.8998 2.88242 9.40044 2.84255 10.0125 2.87854C10.9001 2.93073 11.3593 2.8235 12.2814 2.34876C14.3311 1.29353 14.0645 1.15952 10.1449 1.27476C7.38104 1.35602 6.39015 1.46889 5.27402 1.82954C3.77516 2.31387 2.66769 3.03043 2.88203 3.37722C2.95739 3.49917 3.25633 3.35665 3.58434 3.04239C4.18675 2.46525 5.32132 2.30614 5.9335 2.71296C6.422 3.03759 4.98721 4.26216 3.58354 4.71861C1.24952 5.47757 0.445561 6.63444 1.74644 7.3621C2.50248 7.785 2.84083 7.57306 3.86875 6.03263C5.04218 4.27414 5.7892 4.0462 6.93683 5.09641C8.07321 6.13632 7.56583 8.17555 5.80437 9.64795C4.76014 10.5208 4.69509 10.6744 5.28977 10.8632C5.88628 11.0525 6.46134 10.6751 7.19003 9.61595C7.68314 8.89924 8.00292 8.65738 8.60733 8.54399C9.77007 8.32586 10.5955 7.39917 10.5955 6.312C10.5955 5.82917 10.4937 5.24389 10.3693 5.01138C10.1489 4.59951 10.1602 4.59752 10.811 4.93405C11.1784 5.12402 11.7674 5.74353 12.12 6.31074C12.7061 7.25359 12.8828 7.37899 14.181 7.77329C14.9619 8.0105 16.0243 8.50501 16.5418 8.87222C17.6228 9.63936 19.2839 11.193 19.2839 11.437C19.2839 11.5278 18.7681 11.2722 18.1378 10.869L20.4858 12.397L20.1907 11.5404C19.8669 10.6008 20.0968 9.04542 20.6715 8.28707C20.9357 7.93847 20.9664 8.00213 20.9724 8.91234C20.9796 9.99731 21.4047 11.2354 21.9938 11.8874C22.4905 12.4372 24.1781 13.276 25.9591 13.8583C27.7168 14.433 27.5054 14.4632 24.5656 14.0572C20.5249 13.4991 18.0581 13.4241 16.5396 13.8131C14.3451 14.3753 13.1385 15.5759 13.1385 17.1971C13.1385 18.0585 13.9147 18.8104 14.8094 18.8156C15.245 18.8181 15.2955 18.8628 15.0457 19.0243C14.9445 19.0897 14.8341 19.14 14.7177 19.1759C15.3212 19.03 16.1479 18.6242 16.5938 17.7097C16.4633 17.9781 16.3171 18.0148 16.3171 17.6092C16.3171 17.3671 16.1695 17.0464 15.989 16.8967C15.5272 16.5134 15.6908 15.8016 16.3171 15.4687C17.1022 15.0513 19.2629 15.2807 21.6149 16.0311C24.407 16.9218 25.5258 17.1482 27.1519 17.1516C28.8072 17.155 29.7146 16.7618 30.3118 15.7823C30.8173 14.9533 30.8565 13.2738 30.4092 11.6074C30.2371 10.9664 30.0952 10.4238 30.0938 10.4016C30.0925 10.3795 30.878 10.7763 31.8396 11.2835C32.8011 11.7906 34.3507 12.4762 35.2831 12.8071L36.9784 13.4086L35.5589 13.471C34.7768 13.5054 33.6035 13.3936 32.9463 13.2219C31.8415 12.9334 31.7646 12.9367 31.9054 13.2655C31.989 13.4608 32.1036 14.1732 32.1601 14.8487C32.2619 16.066 32.2715 16.0812 33.2432 16.562C36.3615 18.1048 37.9981 18.3673 44.1986 18.319L48.8759 18.2826L49.7185 18.84C50.3764 19.2753 50.7579 19.8039 51.4588 21.2509C52.9273 24.283 55.43 26.4017 58.3352 27.0721C58.8268 27.1856 60.6117 27.2824 62.3017 27.2873C67.2384 27.3015 69.706 28.0637 72.1556 30.3308C72.8549 30.978 73.3794 31.5037 73.3211 31.4991C73.2628 31.4944 72.4523 31.0697 71.5199 30.5553L76.1306 33.3242ZM71.8219 25.0357C72.4239 26.0062 73.4704 26.9484 74.898 27.8049C75.5904 28.2203 76.1907 28.5602 76.2319 28.5602C76.2731 28.5602 75.7945 28.0596 75.1684 27.4477C74.5423 26.8358 73.6656 25.7859 73.2203 25.1146C72.0174 23.3011 71.4596 23.0362 68.382 22.8169C65.9847 22.646 64.6384 22.4308 63.6535 22.0611C63.312 21.9329 63.294 21.9592 63.5269 22.246C64.0713 22.9162 65.9297 23.5096 68.1074 23.7086C70.6692 23.9426 71.279 24.1605 71.8219 25.0357ZM10.7015 1.80644C8.88505 1.92529 8.64499 1.9946 9.09232 2.27106C9.44401 2.48842 10.904 2.31877 11.761 1.96094C12.3213 1.72702 12.1956 1.70869 10.7015 1.80644Z" fill="#070707"/>
<path d="M4.78047 3.44404C5.17286 3.13625 5.16326 3.12404 4.57243 3.17915C4.23176 3.21093 3.91389 3.35612 3.86606 3.50181C3.74582 3.86798 4.2833 3.83402 4.78047 3.44404Z" fill="#070707"/>
<path d="M2.75484 4.0514C2.75484 4.01137 2.67665 3.97861 2.58107 3.97861C2.31486 3.97861 0.635735 5.46705 0.635735 5.70303C0.635735 5.81743 1.11253 5.50899 1.69529 5.01761C2.27804 4.52622 2.75484 4.09143 2.75484 4.0514Z" fill="#070707"/>
</svg>
