<svg width="90" height="67" viewBox="0 0 90 67" fill="none" xmlns="http://www.w3.org/2000/svg">
<path fill-rule="evenodd" clip-rule="evenodd" d="M46.0602 3.6097C47.4772 3.64892 47.3266 4.64466 47.0922 4.98794C42.9105 11.4932 33.0296 22.9477 25.8351 35.5152C24.6439 37.5515 23.7569 39.0496 23.7569 41.2842C23.7569 44.3138 25.6482 47.8957 29.4477 49.4328C31.9471 50.4342 33.5205 50.4649 36.2181 50.5038C56.2451 51.1232 64.2738 50.582 82.1947 49.9739C83.2296 49.971 84.192 49.2737 84.5379 48.8525C88.0027 45.2399 90 38.7455 90 33.0155C90 20.2529 80.8081 8.75673 66.4693 3.22768L64.1679 6.17907C76.7353 11.3734 83.2296 21.7481 83.2296 32.8593C83.2296 35.359 82.8055 37.7802 82.0382 40.0928C81.4694 41.7054 80.7692 42.6315 78.7326 42.6622C64.1286 42.9745 55.8602 43.2033 41.2172 42.8184C39.3285 42.7794 38.7178 42.0904 38.4108 40.595C38.1764 39.7079 38.3718 38.9714 38.9828 37.8584C46.7492 24.0999 60.279 8.37447 62.9348 4.64466C63.4396 3.95566 63.2026 2.56645 61.4701 2.10622C56.4013 0.608113 50.7134 0 44.947 0C18.8386 0.105981 0.423925 14.7906 0 33.0155C1.04617 54.8922 20.0687 66.1903 44.947 66.1903C60.1703 66.1903 74.1157 60.8089 82.2756 52.2753L74.7377 52.5794C67.7776 58.7696 56.6274 62.0782 45.0949 62.0782C24.0748 62.0782 6.96017 51.6253 6.96017 32.8593C6.96017 16.7185 24.0719 3.57071 45.0949 3.57071L46.0602 3.6097Z" fill="#070707"/>
</svg>
