<svg width="142" height="45" viewBox="0 0 142 45" fill="none" xmlns="http://www.w3.org/2000/svg">
<path d="M23.8243 18.844C27.2377 20.6876 31.6306 23.8212 33.1279 26.5962C32.4792 25.0981 31.4854 22.9487 25.5415 18.844H23.8243Z" fill="white"/>
<path d="M19.7664 42.3367C17.478 42.3367 16.5604 41.1295 16.4274 40.6195C16.4695 41.2772 17.2308 42.6185 19.9396 42.722C22.6483 42.8255 24.1903 42.8049 24.6226 42.7816V42.3367H19.7664Z" fill="white"/>
<path d="M19.0158 36.5147C19.2324 38.1016 19.3465 38.5664 20.1305 38.9113C20.793 39.2027 21.5682 39.3102 22.4943 39.4386L22.4949 39.4387C22.6646 39.4622 22.8393 39.4865 23.0194 39.5127C24.1824 39.6819 33.4609 40.1564 33.4609 40.1564C31.5337 40.0388 30.9642 39.6887 30.0389 38.7585C28.571 37.3235 26.7709 36.1486 25.4149 35.4081C24.3052 34.8022 22.9591 34.4405 21.9571 34.1713L21.9067 34.1577C20.8997 33.8871 19.6277 33.6709 19.0158 33.6709C18.5871 33.6709 18.6717 34.2235 18.8616 35.4644C18.9086 35.7716 18.9621 36.121 19.0158 36.5147Z" fill="white"/>
<path fill-rule="evenodd" clip-rule="evenodd" d="M29.8102 34.5243C29.8162 34.5252 29.8222 34.5261 29.8283 34.527C29.847 34.5299 29.8659 34.5327 29.8848 34.5356C29.8601 34.5315 29.8352 34.5277 29.8102 34.5243ZM23.8243 18.844C27.2377 20.6876 31.6306 23.8212 33.1279 26.5962C32.4792 25.0981 31.4854 22.9487 25.5415 18.844H23.8243Z" fill="white"/>
<path d="M22.5 0C10.0736 0 0 10.0736 0 22.5C0 32.7128 6.80429 41.3364 16.1268 44.0847C15.9628 43.6048 15.8402 42.9615 15.7529 42.2165C15.554 40.5194 15.5377 38.2945 15.6298 36.2709C15.1034 30.7236 15.4113 22.5941 16.9058 21.4482C18.3562 20.3363 21.5269 18.8473 23.3255 18.0686C21.8165 17.9972 18.2982 17.5056 16.7119 17.233C15.6128 17.0442 16.909 15.3808 17.4552 15.3047C17.8719 15.2465 18.2671 15.2202 18.6242 15.1963C18.8902 15.1786 19.135 15.1623 19.3519 15.1353C19.4223 15.1264 19.491 15.1178 19.5581 15.1093L19.559 15.1092L19.5622 15.1088L19.5636 15.1086L19.5641 15.1086C21.1036 14.9142 21.768 14.8304 21.768 15.6413C21.768 15.8582 21.7397 16.0753 21.7127 16.2829C21.5996 17.1501 21.5083 17.8504 23.5955 17.6743L28.5397 10.4553C28.8564 9.92189 29.9898 8.8151 31.9901 8.65508C33.3058 8.53899 35.4029 8.35821 37.6485 8.19785C38.3423 8.1483 39.0503 8.10071 39.7537 8.05758C35.6263 3.13203 29.4289 0 22.5 0Z" fill="white"/>
<path d="M24.6226 44.9012C27.6761 44.6155 30.5522 43.7196 33.1279 42.3367H24.6226V42.7816V44.9012Z" fill="white"/>
<path d="M29.3893 10.668C29.049 11.1103 26.099 15.6207 24.6666 17.8206C31.2197 17.5545 37.3176 17.5156 41.4477 17.4892H41.448L41.449 17.4892C41.8981 17.4863 42.324 17.4836 42.7247 17.4807C43.3608 17.4762 43.9334 17.4714 44.4345 17.4651C43.7728 14.5703 42.5527 11.8882 40.8936 9.53818C40.173 9.53835 39.4759 9.53837 38.8111 9.53822C35.393 9.53746 32.8291 9.53228 32.3173 9.51953C30.609 9.477 29.8147 10.115 29.3893 10.668Z" fill="white"/>
<path d="M42.3384 28.8797C40.516 28.888 36.497 28.9486 34.9996 29.1247C33.1279 29.3448 29.9791 32.1837 28.8848 33.1707C27.7905 34.1577 35.722 34.4125 39.6174 34.3785H41.6125C42.6685 32.6831 43.5051 30.8369 44.0827 28.8797H42.3384Z" fill="white"/>
<path d="M41.1565 35.0812C40.4449 35.0792 39.7646 35.076 39.1147 35.0709C35.3896 35.0417 32.0672 34.863 29.8848 34.5356C29.8659 34.5327 29.847 34.5299 29.8283 34.527L29.8102 34.5243C28.9165 34.3871 28.2201 34.2244 27.7735 34.0362C28.0827 34.6476 28.4843 35.2394 28.9071 35.8625C29.0437 36.0639 29.1826 36.2685 29.3213 36.4782C29.8645 37.2993 30.2941 37.8067 30.7307 38.3225L30.7903 38.3928C31.8646 39.3615 32.0885 39.5232 34.387 39.6115H37.1104C37.1773 39.5544 37.2438 39.4969 37.31 39.439C38.2812 38.5891 39.1787 37.657 39.9917 36.6536C40.0252 36.6123 40.0585 36.5708 40.0917 36.5292L40.0919 36.529C40.4654 36.0613 40.8206 35.5783 41.1565 35.0812Z" fill="white"/>
<path fill-rule="evenodd" clip-rule="evenodd" d="M25.8753 25.002C28.5159 25.9465 30.3073 27.442 30.8729 28.0717C28.0378 29.6234 24.801 28.8138 19.741 27.5994C17.882 27.1533 18.218 24.361 18.6278 22.978C19.9434 23.2591 23.2347 24.0574 25.8753 25.002Z" fill="white"/>
<path d="M120.019 30.8133C118.845 30.8133 117.785 30.1099 117.329 29.028L114.455 22.2034C113.933 20.9645 114.842 19.5941 116.187 19.5941L119.401 27.9606L118.848 28.1309L122.233 19.5941H125L120.019 30.8133Z" fill="white"/>
<path d="M128.534 30.8133C127.1 30.8133 125.937 29.6505 125.937 28.2161V19.5941H128.534V30.8133ZM127.214 17.2097C126.689 17.2097 126.277 17.082 125.979 16.8265C125.696 16.5569 125.554 16.1808 125.554 15.6982C125.554 15.2441 125.703 14.8822 126.001 14.6125C126.299 14.3286 126.703 14.1867 127.214 14.1867C127.739 14.1867 128.144 14.3215 128.428 14.5912C128.726 14.8467 128.875 15.2157 128.875 15.6982C128.875 16.1382 128.726 16.5001 128.428 16.784C128.13 17.0678 127.725 17.2097 127.214 17.2097Z" fill="white"/>
<path d="M136.113 30.8133C134.939 30.8133 133.879 30.1099 133.423 29.028L130.549 22.2034C130.027 20.9645 130.936 19.5941 132.281 19.5941L135.495 27.9606L134.942 28.1309L138.327 19.5941H141.094L136.113 30.8133Z" fill="white"/>
<path d="M104.716 30.8133V18.6574C104.716 17.1407 105.945 15.9111 107.462 15.9111V28.2587H114.338V30.8133H104.716Z" fill="white"/>
<path d="M68.861 30.8133C67.683 30.8133 66.6398 30.572 65.7315 30.0895C64.8374 29.5928 64.1348 28.9186 63.6239 28.067C63.1272 27.2013 62.8788 26.2078 62.8788 25.0866C62.8788 24.2067 63.0207 23.4048 63.3046 22.681C63.5884 21.9571 63.9858 21.3327 64.4968 20.8075C65.0077 20.2682 65.6109 19.8566 66.3063 19.5728C67.0159 19.2747 67.7823 19.1257 68.6055 19.1257C69.3577 19.1257 70.0461 19.2677 70.6705 19.5515C71.3092 19.8354 71.8627 20.2256 72.3311 20.7224C72.7994 21.2049 73.1542 21.7868 73.3955 22.4681C73.651 23.1351 73.7716 23.866 73.7574 24.6608L73.7361 25.5975H64.6671L64.1561 23.788H71.5434L71.224 24.1499V23.6603C71.1815 23.2345 71.0395 22.8584 70.7983 22.5319C70.557 22.1913 70.2448 21.9288 69.8616 21.7443C69.4926 21.5456 69.081 21.4462 68.6268 21.4462C67.9314 21.4462 67.3424 21.581 66.8598 21.8507C66.3773 22.1062 66.0083 22.4894 65.7528 23.0003C65.5115 23.5112 65.3909 24.1428 65.3909 24.895C65.3909 25.6188 65.5399 26.2504 65.838 26.7897C66.1502 27.329 66.5902 27.7477 67.1579 28.0458C67.7256 28.3438 68.3855 28.4928 69.1377 28.4928C69.6629 28.4928 70.1454 28.4077 70.5854 28.2374C71.0395 28.067 71.5221 27.7619 72.033 27.3219L73.3104 29.1102C72.9272 29.465 72.4872 29.7702 71.9904 30.0256C71.5079 30.2669 70.997 30.4585 70.4576 30.6004C69.9183 30.7424 69.3861 30.8133 68.861 30.8133Z" fill="white"/>
<path d="M77.3965 30.6004C75.9621 30.6004 74.7992 29.4376 74.7992 28.0032V19.3812H75.033C76.3099 19.3812 77.3516 20.4037 77.3752 21.6804L76.8856 21.9359C77.0417 21.4391 77.3184 20.985 77.7158 20.5734C78.1274 20.1476 78.6171 19.807 79.1848 19.5515C79.7525 19.2818 80.3415 19.147 80.9517 19.147C81.8033 19.147 82.5129 19.3173 83.0806 19.6579C83.6625 19.9986 84.0954 20.5095 84.3792 21.1907C84.6631 21.872 84.805 22.7235 84.805 23.7454V30.6004C83.3706 30.6004 82.2078 29.4376 82.2078 28.0032V23.937C82.2078 23.3551 82.1297 22.8797 81.9736 22.5107C81.8175 22.1275 81.5762 21.8507 81.2498 21.6804C80.9233 21.4959 80.526 21.4178 80.0576 21.4462C79.6744 21.4462 79.3196 21.5101 78.9932 21.6378C78.6667 21.7514 78.3829 21.9217 78.1416 22.1487C77.9145 22.3616 77.73 22.6171 77.5881 22.9151C77.4604 23.199 77.3965 23.5112 77.3965 23.8519V30.6004C77.6236 30.6004 77.1552 30.6004 77.3965 30.6004Z" fill="white"/>
<path d="M90.3268 30.6004C88.8924 30.6004 87.7296 29.4376 87.7296 28.0032V16.5285C89.164 16.5285 90.3268 17.6913 90.3268 19.1257V30.6004ZM85.5155 21.8081V19.3812H92.775V21.8081H85.5155Z" fill="white"/>
<path d="M102.223 30.6004C100.882 30.6004 99.7959 29.5139 99.7959 28.1735V23.4261C99.7959 22.8158 99.5901 22.3403 99.1785 21.9997C98.7811 21.6449 98.2631 21.4675 97.6244 21.4675C97.0283 21.4675 96.489 21.5881 96.0065 21.8294C95.5239 22.0565 95.0768 22.4255 94.6653 22.9364L93.0473 21.3185C93.7144 20.6088 94.4524 20.0695 95.2613 19.7005C96.0703 19.3315 96.9432 19.147 97.8799 19.147C98.774 19.147 99.5404 19.2889 100.179 19.5728C100.832 19.8566 101.336 20.2824 101.691 20.8501C102.045 21.4036 102.223 22.0849 102.223 22.8939V30.6004ZM96.6025 30.8133C95.8787 30.8133 95.233 30.6714 94.6653 30.3875C94.0976 30.1037 93.6434 29.7134 93.3028 29.2167C92.9763 28.7057 92.8131 28.1096 92.8131 27.4284C92.8131 26.8323 92.9196 26.3143 93.1325 25.8743C93.3454 25.4201 93.6576 25.044 94.0692 24.746C94.4949 24.4479 95.0201 24.228 95.6445 24.086C96.2832 23.9299 97.0141 23.8519 97.8373 23.8519H101.052L100.86 25.7253H97.6883C97.3051 25.7253 96.9644 25.7608 96.6664 25.8317C96.3684 25.9027 96.1129 26.0091 95.9 26.1511C95.6871 26.293 95.531 26.4633 95.4316 26.662C95.3323 26.8465 95.2826 27.0736 95.2826 27.3432C95.2826 27.6271 95.3536 27.8755 95.4955 28.0883C95.6375 28.287 95.8291 28.4432 96.0703 28.5567C96.3116 28.6702 96.5955 28.727 96.9219 28.727C97.3902 28.727 97.8302 28.6489 98.2418 28.4928C98.6676 28.3367 99.0437 28.1167 99.3701 27.8329C99.6965 27.549 99.952 27.2297 100.136 26.8749L100.669 28.3225C100.371 28.8193 100.002 29.2521 99.5617 29.6211C99.1359 29.9901 98.6676 30.2811 98.1566 30.494C97.6599 30.7069 97.1419 30.8133 96.6025 30.8133Z" fill="white"/>
<path fill-rule="evenodd" clip-rule="evenodd" d="M53.6652 30.6004C52.172 30.6004 50.9615 29.39 50.9615 27.8967V15.6982H57.4546C58.3345 15.6982 59.1435 15.9111 59.8815 16.3369C60.6196 16.7485 61.2015 17.3162 61.6272 18.04C62.0672 18.7496 62.2872 19.5515 62.2872 20.4456C62.2872 21.2972 62.0672 22.0778 61.6272 22.7874C61.2015 23.497 60.6196 24.0648 59.8815 24.4905C59.7443 24.5713 59.604 24.6444 59.4606 24.7098L62.8833 30.6217C60.869 30.6086 59.0161 29.5175 58.0275 27.7624L56.5442 25.1292H53.6652V30.6004ZM57.4759 22.7023H53.6652V18.189H56.9863C57.483 18.189 57.923 18.2884 58.3062 18.4871C58.6894 18.6858 58.9874 18.9554 59.2003 19.296C59.4132 19.6367 59.5196 20.0412 59.5196 20.5095C59.5196 20.9211 59.4345 21.2972 59.2642 21.6378C59.0939 21.9643 58.8526 22.2268 58.5403 22.4255C58.2281 22.61 57.8733 22.7023 57.4759 22.7023Z" fill="white"/>
</svg>
