<svg width="273" height="88" viewBox="0 0 273 88" fill="none" xmlns="http://www.w3.org/2000/svg">
<path d="M46.0971 36.4608C52.7016 40.028 61.2012 46.0911 64.0984 51.4604C62.8432 48.5617 60.9204 44.4028 49.4197 36.4608H46.0971Z" fill="white"/>
<path d="M38.2455 81.9163C33.8177 81.9163 32.0424 79.5805 31.785 78.5937C31.8664 79.8662 33.3395 82.4614 38.5806 82.6618C43.8217 82.8621 46.8051 82.8221 47.6417 82.7771V81.9163H38.2455Z" fill="white"/>
<path d="M36.7932 70.6513C37.2124 73.7219 37.433 74.6211 38.95 75.2884C40.2318 75.8523 41.7318 76.0603 43.5237 76.3088L43.5247 76.309C43.8531 76.3545 44.1913 76.4014 44.5397 76.4521C46.79 76.7795 64.7426 77.6976 64.7426 77.6976C61.0138 77.4701 59.9118 76.7927 58.1215 74.993C55.2812 72.2163 51.7983 69.943 49.1747 68.5103C47.0276 67.3379 44.423 66.6381 42.4842 66.1171L42.3867 66.0909C40.4384 65.5673 37.9772 65.1489 36.7932 65.1489C35.9638 65.1489 36.1274 66.2182 36.4949 68.6192C36.5858 69.2136 36.6893 69.8897 36.7932 70.6513Z" fill="white"/>
<path fill-rule="evenodd" clip-rule="evenodd" d="M57.679 66.8001C57.6906 66.8019 57.7023 66.8037 57.714 66.8055C57.7503 66.811 57.7867 66.8166 57.8234 66.8221C57.7756 66.8141 57.7275 66.8068 57.679 66.8001ZM46.0971 36.4608C52.7016 40.028 61.2012 46.0911 64.0984 51.4604C62.8432 48.5617 60.9204 44.4028 49.4197 36.4608H46.0971Z" fill="white"/>
<path d="M43.5347 0C19.4911 0 0 19.4911 0 43.5347C0 63.2952 13.1655 79.9807 31.2034 85.2983C30.886 84.3698 30.6489 83.1251 30.4799 81.6837C30.095 78.4 30.0636 74.0951 30.2417 70.1796C29.2232 59.4463 29.8189 43.7167 32.7107 41.4996C35.5171 39.3481 41.6518 36.4672 45.1319 34.9605C42.2123 34.8224 35.4047 33.8711 32.3354 33.3437C30.2088 32.9784 32.7168 29.76 33.7737 29.6126C34.5798 29.5002 35.3445 29.4491 36.0356 29.403C36.5501 29.3687 37.0238 29.3371 37.4434 29.2849C37.5797 29.2678 37.7127 29.251 37.8424 29.2346L37.8443 29.2344L37.8504 29.2336L37.8531 29.2333L37.8541 29.2332C40.8329 28.8572 42.1184 28.6949 42.1184 30.2639C42.1184 30.6837 42.0636 31.1037 42.0113 31.5053C41.7925 33.1834 41.6159 34.5383 45.6544 34.1976L55.2207 20.2297C55.8335 19.1976 58.0266 17.0561 61.8968 16.7465C64.4426 16.5219 68.5003 16.1721 72.8452 15.8618C74.1876 15.766 75.5574 15.6739 76.9185 15.5904C68.9325 6.06009 56.9413 0 43.5347 0Z" fill="white"/>
<path d="M47.6417 83.6379V86.8782C53.5497 86.3254 59.1147 84.592 64.0984 81.9163H55.8886H47.6417V82.7771V83.6379Z" fill="white"/>
<path d="M56.8647 20.6412C56.2063 21.4971 50.4984 30.2241 47.7268 34.4806C60.4062 33.9658 72.2048 33.8904 80.1961 33.8394H80.1966L80.1986 33.8394C81.0677 33.8338 81.8917 33.8286 82.667 33.8231C83.8978 33.8143 85.0056 33.8049 85.9753 33.7928C84.6949 28.1917 82.3342 23.0022 79.1241 18.4552C77.7298 18.4555 76.381 18.4556 75.0947 18.4553C68.481 18.4538 63.5203 18.4438 62.5299 18.4191C59.2246 18.3368 57.6876 19.5713 56.8647 20.6412Z" fill="white"/>
<path d="M81.9195 55.8786C78.3934 55.8947 70.6171 56.012 67.7199 56.3527C64.0984 56.7786 58.0059 62.2714 55.8886 64.1811C53.7712 66.0909 69.1175 66.5839 76.6548 66.5182H80.515C82.5582 63.2377 84.1769 59.6656 85.2946 55.8786H81.9195Z" fill="white"/>
<path d="M79.6327 67.8778C78.2559 67.8739 76.9396 67.8677 75.6821 67.8578C68.4745 67.8013 62.0461 67.4557 57.8234 66.8221C57.7867 66.8166 57.7503 66.811 57.714 66.8055L57.679 66.8001C55.9498 66.5348 54.6024 66.22 53.7382 65.8558C54.3366 67.0388 55.1135 68.1838 55.9316 69.3895C56.196 69.7791 56.4647 70.1751 56.733 70.5807C57.784 72.1694 58.6153 73.1513 59.4601 74.1492L59.5753 74.2854C61.6539 76.1596 62.0872 76.4724 66.5345 76.6434H71.804C71.9334 76.5329 72.0621 76.4216 72.1901 76.3095C74.0694 74.6651 75.806 72.8616 77.3789 70.9202C77.4437 70.8402 77.5083 70.76 77.5725 70.6795L77.5728 70.6791C78.2955 69.7741 78.9828 68.8397 79.6327 67.8778Z" fill="white"/>
<g filter="url(#filter0_dd_1_872)">
<path fill-rule="evenodd" clip-rule="evenodd" d="M50.0653 48.3756C55.1745 50.2032 58.6407 53.0968 59.7351 54.3152C54.2494 57.3176 47.9866 55.7511 38.1961 53.4014C34.5993 52.5382 35.2493 47.1355 36.0422 44.4595C38.5877 45.0034 44.9561 46.5481 50.0653 48.3756Z" fill="url(#paint0_radial_1_872)"/>
</g>
<path d="M232.222 59.6201C229.95 59.6201 227.9 58.259 227.018 56.1657L221.455 42.9611C220.446 40.5638 222.206 37.9123 224.807 37.9123L231.027 54.1005L229.956 54.43L236.505 37.9123H241.86L232.222 59.6201Z" fill="#FF4400"/>
<path d="M248.697 59.6201C245.922 59.6201 243.672 57.3702 243.672 54.5948V37.9123H248.697V59.6201ZM246.144 33.2989C245.128 33.2989 244.331 33.0517 243.754 32.5574C243.205 32.0357 242.931 31.308 242.931 30.3743C242.931 29.4955 243.219 28.7953 243.796 28.2735C244.372 27.7243 245.155 27.4497 246.144 27.4497C247.16 27.4497 247.942 27.7106 248.491 28.2323C249.068 28.7266 249.357 29.4406 249.357 30.3743C249.357 31.2256 249.068 31.9258 248.491 32.475C247.915 33.0243 247.132 33.2989 246.144 33.2989Z" fill="#FF4400"/>
<path d="M263.361 59.6201C261.09 59.6201 259.039 58.259 258.158 56.1657L252.595 42.9611C251.585 40.5638 253.346 37.9123 255.947 37.9123L262.167 54.1005L261.096 54.43L267.645 37.9123H273L263.361 59.6201Z" fill="#FF4400"/>
<path d="M202.612 59.6201V36.0999C202.612 33.1652 204.991 30.7862 207.926 30.7862V54.6772H221.231V59.6201H202.612Z" fill="#FF4400"/>
<path d="M133.237 59.6201C130.958 59.6201 128.94 59.1533 127.182 58.2196C125.452 57.2585 124.093 55.9541 123.104 54.3064C122.143 52.6313 121.663 50.7091 121.663 48.5396C121.663 46.8371 121.937 45.2855 122.487 43.885C123.036 42.4845 123.805 41.2762 124.793 40.2602C125.782 39.2167 126.949 38.4203 128.294 37.8711C129.668 37.2944 131.15 37.0061 132.743 37.0061C134.199 37.0061 135.53 37.2807 136.739 37.8299C137.974 38.3791 139.045 39.1343 139.952 40.0954C140.858 41.0291 141.544 42.155 142.011 43.4731C142.505 44.7638 142.739 46.178 142.711 47.7158L142.67 49.5282H125.123L124.134 46.027H138.428L137.81 46.7272V45.7798C137.727 44.956 137.453 44.2283 136.986 43.5967C136.519 42.9376 135.915 42.4296 135.173 42.0726C134.459 41.6882 133.663 41.4959 132.784 41.4959C131.439 41.4959 130.299 41.7568 129.365 42.2786C128.432 42.7729 127.718 43.5143 127.224 44.5029C126.757 45.4915 126.523 46.7135 126.523 48.1689C126.523 49.5694 126.812 50.7914 127.388 51.8349C127.992 52.8785 128.844 53.6886 129.942 54.2652C131.041 54.8419 132.318 55.1303 133.773 55.1303C134.789 55.1303 135.723 54.9655 136.574 54.636C137.453 54.3064 138.386 53.716 139.375 52.8647L141.846 56.3248C141.105 57.0113 140.254 57.6017 139.293 58.096C138.359 58.5629 137.37 58.9336 136.327 59.2082C135.283 59.4828 134.253 59.6201 133.237 59.6201Z" fill="white"/>
<path d="M149.753 59.2082C146.977 59.2082 144.727 56.9583 144.727 54.1829V37.5004H145.18C147.65 37.5004 149.666 39.4789 149.711 41.949L148.764 42.4433C149.066 41.4822 149.602 40.6035 150.37 39.8071C151.167 38.9833 152.114 38.3242 153.213 37.8299C154.311 37.3081 155.451 37.0473 156.632 37.0473C158.279 37.0473 159.652 37.3768 160.751 38.0359C161.877 38.6949 162.714 39.6835 163.263 41.0016C163.813 42.3198 164.087 43.9674 164.087 45.9446V59.2082C161.312 59.2082 159.062 56.9583 159.062 54.1829V46.3153C159.062 45.1894 158.911 44.2695 158.609 43.5555C158.307 42.814 157.84 42.2786 157.208 41.949C156.577 41.592 155.808 41.441 154.901 41.4959C154.16 41.4959 153.474 41.6195 152.842 41.8667C152.21 42.0863 151.661 42.4159 151.194 42.8552C150.755 43.2672 150.398 43.7614 150.123 44.3381C149.876 44.8873 149.753 45.4915 149.753 46.1505V59.2082C150.192 59.2082 149.286 59.2082 149.753 59.2082Z" fill="white"/>
<path d="M174.771 59.2082C171.996 59.2082 169.746 56.9583 169.746 54.1829V31.9807C172.521 31.9807 174.771 34.2307 174.771 37.0061V59.2082ZM165.462 42.1962V37.5004H179.508V42.1962H165.462Z" fill="white"/>
<path d="M197.788 59.2082C195.195 59.2082 193.093 57.1058 193.093 54.5124V45.3267C193.093 44.1459 192.694 43.226 191.898 42.5669C191.129 41.8804 190.127 41.5371 188.891 41.5371C187.738 41.5371 186.694 41.7705 185.761 42.2374C184.827 42.6767 183.962 43.3907 183.165 44.3793L180.035 41.2488C181.326 39.8757 182.754 38.8322 184.319 38.1182C185.884 37.4043 187.573 37.0473 189.385 37.0473C191.115 37.0473 192.598 37.3219 193.834 37.8711C195.097 38.4203 196.072 39.2441 196.759 40.3426C197.445 41.4135 197.788 42.7317 197.788 44.2969V59.2082ZM186.914 59.6201C185.513 59.6201 184.264 59.3455 183.165 58.7963C182.067 58.2471 181.188 57.4919 180.529 56.5308C179.898 55.5422 179.582 54.3888 179.582 53.0707C179.582 51.9173 179.788 50.915 180.2 50.0637C180.612 49.185 181.216 48.4573 182.012 47.8806C182.836 47.3039 183.852 46.8783 185.06 46.6037C186.296 46.3016 187.71 46.1505 189.303 46.1505H195.523L195.152 49.7754H189.015C188.273 49.7754 187.614 49.844 187.037 49.9813C186.461 50.1186 185.966 50.3246 185.555 50.5992C185.143 50.8738 184.841 51.2033 184.648 51.5878C184.456 51.9448 184.36 52.3842 184.36 52.9059C184.36 53.4551 184.497 53.9357 184.772 54.3476C185.047 54.7321 185.417 55.0341 185.884 55.2538C186.351 55.4735 186.9 55.5834 187.532 55.5834C188.438 55.5834 189.289 55.4323 190.086 55.1303C190.909 54.8282 191.637 54.4025 192.269 53.8533C192.9 53.3041 193.395 52.6862 193.752 51.9997L194.781 54.8007C194.205 55.7619 193.491 56.5994 192.64 57.3134C191.816 58.0274 190.909 58.5903 189.921 59.0022C188.96 59.4141 187.957 59.6201 186.914 59.6201Z" fill="white"/>
<path fill-rule="evenodd" clip-rule="evenodd" d="M103.835 59.2082C100.946 59.2082 98.6042 56.8661 98.6042 53.9769V30.3743H111.168C112.87 30.3743 114.435 30.7862 115.863 31.61C117.291 32.4064 118.417 33.5048 119.241 34.9053C120.092 36.2784 120.518 37.8299 120.518 39.56C120.518 41.2076 120.092 42.718 119.241 44.091C118.417 45.464 117.291 46.5625 115.863 47.3863C115.598 47.5425 115.326 47.684 115.049 47.8106L121.671 59.2494C117.774 59.2239 114.189 57.1129 112.276 53.7171L109.406 48.622H103.835V59.2082ZM111.209 43.9262H103.835V35.1937H110.261C111.222 35.1937 112.074 35.3859 112.815 35.7704C113.557 36.1548 114.133 36.6766 114.545 37.3356C114.957 37.9947 115.163 38.7773 115.163 39.6835C115.163 40.4799 114.998 41.2076 114.669 41.8667C114.339 42.4983 113.872 43.0063 113.268 43.3908C112.664 43.7477 111.978 43.9262 111.209 43.9262Z" fill="white"/>
<defs>
<filter id="filter0_dd_1_872" x="20.4218" y="29.4595" width="54.3133" height="41.5083" filterUnits="userSpaceOnUse" color-interpolation-filters="sRGB">
<feFlood flood-opacity="0" result="BackgroundImageFix"/>
<feColorMatrix in="SourceAlpha" type="matrix" values="0 0 0 0 0 0 0 0 0 0 0 0 0 0 0 0 0 0 127 0" result="hardAlpha"/>
<feOffset/>
<feGaussianBlur stdDeviation="7.5"/>
<feComposite in2="hardAlpha" operator="out"/>
<feColorMatrix type="matrix" values="0 0 0 0 1 0 0 0 0 0.296154 0 0 0 0 0.120192 0 0 0 1 0"/>
<feBlend mode="normal" in2="BackgroundImageFix" result="effect1_dropShadow_1_872"/>
<feColorMatrix in="SourceAlpha" type="matrix" values="0 0 0 0 0 0 0 0 0 0 0 0 0 0 0 0 0 0 127 0" result="hardAlpha"/>
<feOffset/>
<feGaussianBlur stdDeviation="2.5"/>
<feComposite in2="hardAlpha" operator="out"/>
<feColorMatrix type="matrix" values="0 0 0 0 1 0 0 0 0 0.34902 0 0 0 0 0 0 0 0 1 0"/>
<feBlend mode="normal" in2="effect1_dropShadow_1_872" result="effect2_dropShadow_1_872"/>
<feBlend mode="normal" in="SourceGraphic" in2="effect2_dropShadow_1_872" result="shape"/>
</filter>
<radialGradient id="paint0_radial_1_872" cx="0" cy="0" r="1" gradientUnits="userSpaceOnUse" gradientTransform="translate(46.1913 51.3648) rotate(-162.784) scale(16.9846 5.8631)">
<stop stop-color="#FF4400"/>
<stop offset="1" stop-color="#D91300"/>
</radialGradient>
</defs>
</svg>
