<svg width="90" height="90" viewBox="0 0 90 90" fill="none" xmlns="http://www.w3.org/2000/svg">
<path d="M65.9252 5.06251C59.6251 1.8 52.5376 0 45.0001 0C37.4626 0 30.3751 1.8 24.0751 5.06251C9.78752 12.6 0 27.6751 0 45.0001C0 62.3252 9.78752 77.4002 24.1876 84.9377C30.3751 88.0877 37.4626 90.0002 45.0001 90.0002C52.5376 90.0002 59.5127 88.0877 65.8127 84.8252C80.2127 77.4002 90.0002 62.3252 90.0002 45.0001C90.0002 27.6751 80.2127 12.6 65.9252 5.06251ZM4.50001 45.0001C4.50001 30.2626 12.375 17.4375 24.1876 10.2375C29.9251 6.75002 36.5626 4.72501 43.8751 4.50001L38.8126 41.2876L24.1876 52.6501L9.33752 64.2377C6.30002 58.5001 4.50001 51.9751 4.50001 45.0001ZM65.9252 79.6502C59.7377 83.3627 52.6501 85.5002 45.0001 85.5002C37.3501 85.5002 30.1501 83.3627 24.0751 79.6502C18.5625 76.3877 14.0625 71.8877 10.6875 66.4877L24.0751 60.9752L45.0001 52.4251L65.9252 60.8627L79.4252 66.3752C76.0502 71.8877 71.3252 76.3877 65.9252 79.6502ZM65.9252 52.6501L51.4126 41.4001L46.2376 4.50001C53.3251 4.72501 60.0752 6.75002 65.8127 10.2375C77.6252 17.325 85.5002 30.2626 85.5002 45.0001C85.5002 51.9751 83.8127 58.5001 80.6627 64.2377L65.9252 52.6501Z" fill="#070707"/>
</svg>
