<svg width="43" height="60" viewBox="0 0 43 60" fill="none" xmlns="http://www.w3.org/2000/svg">
<path d="M37.7448 5.31553L19.5321 0.217835C16.4162 -0.65429 13.1717 1.17098 12.2995 4.28718L0.217823 47.4518C-0.654303 50.5677 1.17116 53.8124 4.28703 54.6845L22.4997 59.7822C25.6158 60.6544 28.8604 58.8286 29.7323 55.7133L41.8141 12.5483C42.6863 9.43206 40.8609 6.18771 37.7448 5.31553ZM14.3277 53.8953C13.0651 53.5419 12.3253 52.227 12.6787 50.9644C13.0322 49.7016 14.3468 48.962 15.6096 49.3154C16.8722 49.6689 17.612 50.9835 17.2586 52.2463C16.9052 53.5089 15.5903 54.2487 14.3277 53.8953ZM38.0474 13.1172L27.919 49.303L5.09517 42.9147L15.2235 6.72881L38.0474 13.1172Z" fill="white"/>
</svg>
