<svg width="30" height="30" viewBox="0 0 30 30" fill="none" xmlns="http://www.w3.org/2000/svg">
<rect width="30" height="30" rx="10" fill="#FF4400"/>
<path d="M24.9024 20.0928L20.0487 8.98176C19.8761 8.58662 19.5001 8.3335 19.0862 8.3335H15.6976L15.7827 9.13766C15.8001 9.30154 15.6713 9.4446 15.5063 9.4446H14.4938C14.3289 9.4446 14.2001 9.30154 14.2175 9.13766L14.3025 8.3335H10.914C10.4998 8.3335 10.1237 8.58662 9.95116 8.98176L5.09738 20.0928C4.7762 20.8285 5.2887 21.6667 6.06057 21.6667H12.8952L13.2532 18.2751C13.2831 17.9925 13.5213 17.7779 13.8056 17.7779H16.1945C16.4789 17.7779 16.7171 17.9925 16.7469 18.2751L17.1049 21.6667H23.9396C24.7115 21.6667 25.224 20.8285 24.9024 20.0928ZM14.0418 10.8043C14.049 10.736 14.0812 10.6729 14.1322 10.627C14.1833 10.581 14.2495 10.5557 14.3181 10.5557H15.6824C15.8244 10.5557 15.9438 10.663 15.9588 10.8043L16.1185 12.3175C16.1445 12.5637 15.9515 12.7779 15.7042 12.7779H14.2966C14.0491 12.7779 13.8563 12.5637 13.8824 12.3175L14.0418 10.8043ZM15.9598 16.6668H14.04C13.7102 16.6668 13.4529 16.381 13.4876 16.0529L13.6636 14.3862C13.6935 14.1036 13.9317 13.889 14.2161 13.889H15.7838C16.0681 13.889 16.3063 14.1036 16.3362 14.3862L16.5122 16.0529C16.5469 16.381 16.2897 16.6668 15.9598 16.6668Z" fill="#070707"/>
</svg>
