<svg width="30" height="30" viewBox="0 0 30 30" fill="none" xmlns="http://www.w3.org/2000/svg">
<rect width="30" height="30" rx="10" fill="#FF4400"/>
<path d="M24.3277 6.686H17.1845C17.062 6.70235 16.9459 6.75069 16.8479 6.82616C16.75 6.90163 16.6737 7.00157 16.6266 7.11591C16.5796 7.23026 16.5635 7.35497 16.58 7.47751C16.5964 7.60005 16.6449 7.71609 16.7205 7.81395L18.2182 9.75573L18.4324 10.0327L15 12.6598L11.569 10.0327L11.7832 9.75573L13.2795 7.81395C13.3551 7.71609 13.4036 7.60005 13.42 7.47751C13.4365 7.35497 13.4204 7.23026 13.3734 7.11591C13.3263 7.00157 13.25 6.90163 13.1521 6.82616C13.0541 6.75069 12.938 6.70235 12.8155 6.686H5.67229C5.55929 6.69173 5.44932 6.72446 5.35157 6.78143C5.25382 6.8384 5.17114 6.91797 5.11046 7.01346C5.04978 7.10895 5.01287 7.21759 5.00281 7.33029C4.99274 7.44298 5.00983 7.55644 5.05263 7.66117L6.82737 14.4489C6.87437 14.5633 6.9507 14.6633 7.04866 14.7388C7.14663 14.8144 7.26277 14.8628 7.38539 14.8791C7.50801 14.8955 7.63278 14.8792 7.74712 14.832C7.86146 14.7848 7.96134 14.7083 8.0367 14.6102L9.37168 12.8812L9.77288 12.3586L13.5394 15.2427L13.5308 23.9151C13.5475 24.292 13.7089 24.648 13.9816 24.9089C14.2542 25.1697 14.617 25.3153 14.9943 25.3153C15.3716 25.3153 15.7344 25.1697 16.007 24.9089C16.2796 24.648 16.4411 24.292 16.4578 23.9151L16.4678 15.237L20.2257 12.3586L20.6283 12.8812L21.9619 14.6102C22.0372 14.7083 22.1371 14.7848 22.2515 14.832C22.3658 14.8792 22.4906 14.8955 22.6132 14.8791C22.7358 14.8628 22.8519 14.8144 22.9499 14.7388C23.0479 14.6633 23.1242 14.5633 23.1712 14.4489L24.9474 7.65975C24.9902 7.55501 25.0073 7.44155 24.9972 7.32886C24.9871 7.21617 24.9502 7.10753 24.8895 7.01203C24.8289 6.91654 24.7462 6.83698 24.6484 6.78C24.5507 6.72303 24.4407 6.6903 24.3277 6.68457V6.686Z" fill="#070707"/>
</svg>
