<svg width="30" height="30" viewBox="0 0 30 30" fill="none" xmlns="http://www.w3.org/2000/svg">
<rect width="30" height="30" rx="10" fill="#FF4400"/>
<path d="M15 5C13.0222 5 11.0888 5.58649 9.4443 6.6853C7.79981 7.78412 6.51809 9.3459 5.76121 11.1732C5.00433 13.0004 4.8063 15.0111 5.19215 16.9509C5.578 18.8907 6.53041 20.6725 7.92894 22.0711C9.32746 23.4696 11.1093 24.422 13.0491 24.8078C14.9889 25.1937 16.9996 24.9957 18.8268 24.2388C20.6541 23.4819 22.2159 22.2002 23.3147 20.5557C24.4135 18.9112 25 16.9778 25 15C25 13.6868 24.7413 12.3864 24.2388 11.1732C23.7362 9.95991 22.9997 8.85752 22.0711 7.92893C21.1425 7.00035 20.0401 6.26375 18.8268 5.7612C17.6136 5.25866 16.3132 5 15 5ZM15 7C16.5783 7.00066 18.1211 7.46813 19.4343 8.3436C20.7475 9.21906 21.7724 10.4634 22.38 11.92C19.9678 11.3077 17.4887 10.9986 15 11C12.5036 11.0003 10.0172 11.3162 7.6 11.94C8.20586 10.4765 9.23252 9.2258 10.5499 8.34636C11.8673 7.46692 13.4161 6.99835 15 7ZM7 15.67L8.11 15.54C8.72401 15.468 9.3463 15.5268 9.93596 15.7126C10.5256 15.8983 11.0693 16.2068 11.5312 16.6177C11.9931 17.0286 12.3628 17.5326 12.6159 18.0966C12.8691 18.6606 13 19.2718 13 19.89V22.74C11.3895 22.3306 9.94642 21.4299 8.8712 20.163C7.79598 18.896 7.14197 17.3256 7 15.67ZM17 22.74V19.89C17.0005 19.2746 17.1307 18.6662 17.3821 18.1045C17.6334 17.5428 18.0003 17.0404 18.4588 16.63C18.9174 16.2196 19.4573 15.9104 20.0433 15.7226C20.6293 15.5348 21.2483 15.4726 21.86 15.54L22.97 15.67C22.83 17.3217 22.1804 18.8892 21.1109 20.1557C20.0414 21.4223 18.605 22.3253 17 22.74Z" fill="#070707"/>
</svg>
