<svg width="30" height="30" viewBox="0 0 30 30" fill="none" xmlns="http://www.w3.org/2000/svg">
<rect width="30" height="30" rx="10" fill="#FF4400"/>
<path d="M24.9276 15.8423C24.7776 14.1583 24.5304 13.8303 24.4371 13.707C24.2225 13.4219 23.8791 13.2357 23.5157 13.0402C23.4952 13.0294 23.4774 13.0139 23.4639 12.995C23.4503 12.9761 23.4414 12.9543 23.4377 12.9313C23.434 12.9084 23.4357 12.8849 23.4427 12.8627C23.4496 12.8405 23.4617 12.8203 23.4778 12.8035C23.5451 12.7353 23.5968 12.6533 23.6294 12.5631C23.662 12.473 23.6747 12.3769 23.6666 12.2814C23.6509 12.112 23.5721 11.9547 23.4459 11.8407C23.3197 11.7267 23.1553 11.6643 22.9852 11.6659H22.3351C22.3073 11.666 22.2794 11.6678 22.2518 11.6713C22.2328 11.663 22.2131 11.6565 22.193 11.6517C21.808 10.8378 21.2808 9.72349 20.1881 9.17966C18.5675 8.3737 15.582 8.33203 14.9986 8.33203C14.4152 8.33203 11.4298 8.3737 9.81119 9.17841C8.71853 9.72224 8.19137 10.8366 7.80631 11.6504L7.80298 11.6571C7.78377 11.6598 7.76491 11.6646 7.74672 11.6713C7.71907 11.6678 7.69124 11.666 7.66337 11.6659H7.01203C6.84196 11.6643 6.67751 11.7267 6.55131 11.8407C6.4251 11.9547 6.34635 12.112 6.33068 12.2814C6.32327 12.3766 6.33653 12.4724 6.36955 12.5621C6.40256 12.6518 6.45455 12.7333 6.52196 12.801C6.53808 12.8178 6.5501 12.838 6.55705 12.8602C6.56401 12.8824 6.56572 12.9059 6.56204 12.9288C6.55836 12.9518 6.5494 12.9736 6.53586 12.9925C6.52233 13.0114 6.50458 13.0269 6.48403 13.0377C6.12065 13.2344 5.7756 13.4207 5.56265 13.7045C5.4693 13.8295 5.2226 14.1558 5.07216 15.8398C4.98881 16.7874 4.97631 17.7684 5.04174 18.4002C5.17884 19.7129 5.43596 20.5063 5.4468 20.5392C5.48625 20.659 5.55888 20.7652 5.65625 20.8454C5.75362 20.9256 5.87173 20.9765 5.99688 20.9922V21.0006C5.99688 21.1774 6.06713 21.347 6.19217 21.472C6.31721 21.5971 6.48681 21.6673 6.66364 21.6673H8.99732C9.17416 21.6673 9.34375 21.5971 9.46879 21.472C9.59384 21.347 9.66408 21.1774 9.66408 21.0006C10.0229 21.0006 10.2725 20.9364 10.5371 20.868C10.9192 20.7651 11.3097 20.6966 11.704 20.6634C12.9754 20.5422 14.2398 20.5005 14.9986 20.5005C15.7421 20.5005 17.0623 20.5422 18.3358 20.6634C18.7316 20.6967 19.1237 20.7655 19.5072 20.8689C19.7606 20.9339 20.001 20.9939 20.334 21.0001C20.334 21.177 20.4042 21.3466 20.5293 21.4716C20.6543 21.5967 20.8239 21.6669 21.0008 21.6669H23.3344C23.5113 21.6669 23.6809 21.5967 23.8059 21.4716C23.9309 21.3466 24.0012 21.177 24.0012 21.0001V20.9951C24.1266 20.9797 24.2451 20.9289 24.3428 20.8487C24.4405 20.7685 24.5134 20.6622 24.5529 20.5422C24.5638 20.5092 24.8209 19.7158 24.958 18.4031C25.0234 17.7709 25.0118 16.7916 24.9276 15.8423ZM9.01149 12.2205C9.34487 11.5121 9.72618 10.7103 10.405 10.3723C11.386 9.88393 13.4192 9.66389 14.9986 9.66389C16.578 9.66389 18.6112 9.88226 19.5922 10.3723C20.2711 10.7103 20.6507 11.5125 20.9858 12.2205L21.0274 12.311C21.0518 12.3624 21.0626 12.4193 21.0587 12.4761C21.0549 12.533 21.0365 12.5878 21.0054 12.6356C20.9743 12.6833 20.9315 12.7223 20.8811 12.7487C20.8307 12.7752 20.7743 12.7883 20.7174 12.7869C19.3326 12.7493 16.4155 12.6293 14.9986 12.6293C13.5817 12.6293 10.6646 12.7523 9.27778 12.7898C9.22084 12.7913 9.16447 12.7781 9.11404 12.7517C9.06362 12.7252 9.02082 12.6862 8.98973 12.6385C8.95864 12.5908 8.94029 12.5359 8.93644 12.479C8.93259 12.4222 8.94336 12.3653 8.96773 12.3139C8.98232 12.283 8.99774 12.2518 9.01149 12.2205ZM9.50865 15.5389C8.79179 15.6252 8.07035 15.6678 7.34833 15.6664C6.90659 15.6664 6.45111 15.5414 6.36652 15.148C6.30859 14.8834 6.31484 14.7346 6.3461 14.585C6.37235 14.4579 6.41402 14.3654 6.62239 14.3329C7.16413 14.2496 7.46709 14.3542 8.35389 14.6155C8.94189 14.7884 9.36612 15.0188 9.60783 15.2014C9.72909 15.2914 9.6645 15.5264 9.50865 15.5389ZM18.7342 18.9561C18.1858 19.0186 17.0889 18.9957 15.0111 18.9957C12.9333 18.9957 11.8369 19.0186 11.2885 18.9561C10.7226 18.8932 10.0012 18.3581 10.4938 17.8814C10.8218 17.5671 11.5869 17.3321 12.6058 17.2C13.6247 17.0679 14.056 17 15.007 17C15.9579 17 16.3455 17.0416 17.4081 17.2004C18.4708 17.3592 19.2738 17.5971 19.5201 17.8818C19.9694 18.3918 19.2997 18.8898 18.7342 18.9586V18.9561ZM23.6307 15.1476C23.5474 15.5427 23.089 15.666 22.6489 15.666C21.9131 15.6662 21.1778 15.6236 20.4469 15.5385C20.3194 15.5264 20.2602 15.3026 20.3894 15.201C20.6274 15.0138 21.0562 14.788 21.6433 14.615C22.5301 14.3538 23.0415 14.2492 23.4807 14.3362C23.5878 14.3575 23.6445 14.4725 23.6511 14.5446C23.6805 14.7454 23.6736 14.9497 23.6307 15.148V15.1476Z" fill="#070707"/>
</svg>
