<svg width="30" height="30" viewBox="0 0 30 30" fill="none" xmlns="http://www.w3.org/2000/svg">
<rect width="30" height="30" rx="10" fill="#FF4400"/>
<path d="M16.5909 18.3371C16.5909 18.5881 16.3875 18.7917 16.1364 18.7917H13.8637C13.6127 18.7917 13.4091 18.5881 13.4091 18.3371L13.4091 16.7381L5 14.8288V22.4424C5 22.9445 5.40706 23.3515 5.90909 23.3515H24.0909C24.593 23.3515 25 22.9444 25 22.4424V14.8376L16.5909 16.7392L16.5909 18.3371Z" fill="#070707"/>
<path d="M24.0909 10.8781H5.90908C5.40706 10.8781 5 11.2851 5 11.7872V14.8288L13.4091 16.7381V15.8638C13.4091 15.6129 13.6127 15.4092 13.8636 15.4092H16.1363C16.3875 15.4092 16.5909 15.6129 16.5909 15.8638V16.7392L25 14.8353V11.7872C25 11.2851 24.5929 10.8781 24.0909 10.8781Z" fill="#070707"/>
<path d="M11.4924 9.67839C11.4924 8.9993 12.0449 8.44679 12.7238 8.44679H17.2763C17.9553 8.44679 18.5079 8.99927 18.5079 9.67839V10.8791H19.5767V9.67839C19.5767 8.40976 18.5449 7.37793 17.2763 7.37793H12.7237C11.4553 7.37793 10.4233 8.40976 10.4233 9.67839V10.8791H11.4924L11.4924 9.67839Z" fill="#070707"/>
<path d="M16.1364 18.7917C16.3875 18.7917 16.5909 18.5881 16.5909 18.3371L16.5909 16.7392V15.8638C16.5909 15.6129 16.3875 15.4092 16.1363 15.4092H13.8636C13.6127 15.4092 13.4091 15.6129 13.4091 15.8638V16.7381L13.4091 18.3371C13.4091 18.5881 13.6127 18.7917 13.8637 18.7917H16.1364Z" fill="#070707"/>
</svg>
