<svg width="30" height="30" viewBox="0 0 30 30" fill="none" xmlns="http://www.w3.org/2000/svg">
<rect width="30" height="30" rx="10" fill="#FF4400"/>
<path d="M4.66861 12.667C4.66751 12.7697 4.66699 12.8737 4.66699 12.979V18.355C4.66699 19.4714 4.72551 20.4368 4.90565 21.2474C5.08832 22.0694 5.40908 22.7921 5.97547 23.3585C6.54187 23.9249 7.26463 24.2457 8.08658 24.4283C8.89717 24.6085 9.86256 24.667 10.979 24.667H18.355C19.4714 24.667 20.4368 24.6085 21.2474 24.4283C22.0694 24.2457 22.7921 23.9249 23.3585 23.3585C23.9249 22.7921 24.2457 22.0694 24.4283 21.2474C24.6085 20.4368 24.667 19.4714 24.667 18.355V12.979C24.667 12.8737 24.6665 12.7697 24.6654 12.667H4.66861Z" fill="#070707"/>
<path d="M7.6669 7.01407V5.66699C7.6669 5.11471 8.11461 4.66699 8.6669 4.66699C9.21918 4.66699 9.6669 5.11471 9.6669 5.66699V6.70176C10.078 6.67707 10.5155 6.66699 10.9789 6.66699H18.3549C18.8184 6.66699 19.2558 6.67707 19.6669 6.70176V5.66699C19.6669 5.11471 20.1146 4.66699 20.6669 4.66699C21.2192 4.66699 21.6669 5.11471 21.6669 5.66699V7.01407C22.316 7.20733 22.8905 7.50759 23.3584 7.97547C23.9248 8.54187 24.2456 9.26463 24.4282 10.0866C24.4694 10.272 24.5043 10.4655 24.5335 10.667H4.80029C4.82952 10.4655 4.86436 10.272 4.90556 10.0866C5.08823 9.26463 5.40899 8.54187 5.97538 7.97547C6.44326 7.50759 7.01785 7.20733 7.6669 7.01407Z" fill="#070707"/>
</svg>
