<svg width="86" height="90" viewBox="0 0 86 90" fill="none" xmlns="http://www.w3.org/2000/svg">
<path d="M42.8619 90L54.8532 18.8849C66.283 18.8849 69.8883 20.2065 70.4088 25.6011C70.4088 25.6011 78.0763 22.5864 81.9434 16.4636C66.8526 9.08975 51.6897 8.7572 51.6897 8.7572L42.8419 20.121L42.8619 20.1196L34.0141 8.75542C34.0141 8.75542 18.8509 9.08832 3.76207 16.4622C7.62588 22.585 15.2964 25.5997 15.2964 25.5997C15.82 20.2048 19.4208 18.8831 30.7739 18.8745L42.8619 90Z" fill="#070707"/>
<path d="M42.8571 5.47481C55.056 5.37643 69.0189 7.46477 83.3127 14.0342C85.2232 10.4082 85.7143 8.80567 85.7143 8.80567C70.089 2.28687 55.4562 0.0559599 42.8555 0C30.2554 0.0559599 15.6232 2.28723 0 8.80567C0 8.80567 0.696979 10.7796 2.39988 14.0342C16.691 7.46477 30.6563 5.37643 42.8555 5.47481H42.8571Z" fill="#070707"/>
</svg>
