<svg width="20" height="20" viewBox="0 0 20 20" fill="none" xmlns="http://www.w3.org/2000/svg">
<path d="M14.1971 0H5.8129C2.17108 0 0 2.17108 0 5.8129V14.1871C0 17.8389 2.17108 20.01 5.8129 20.01H14.1871C17.8289 20.01 20 17.8389 20 14.1971V5.8129C20.01 2.17108 17.8389 0 14.1971 0ZM10.005 13.8869C7.86392 13.8869 6.12305 12.1461 6.12305 10.005C6.12305 7.86392 7.86392 6.12305 10.005 6.12305C12.1461 6.12305 13.8869 7.86392 13.8869 10.005C13.8869 12.1461 12.1461 13.8869 10.005 13.8869ZM15.9279 4.88243C15.8779 5.00249 15.8079 5.11255 15.7178 5.2126C15.6178 5.30264 15.5077 5.37268 15.3877 5.4227C15.2676 5.47273 15.1375 5.50274 15.0075 5.50274C14.7373 5.50274 14.4872 5.40269 14.2971 5.2126C14.2071 5.11255 14.137 5.00249 14.087 4.88243C14.037 4.76237 14.007 4.63231 14.007 4.50224C14.007 4.37218 14.037 4.24211 14.087 4.12205C14.137 3.99199 14.2071 3.89194 14.2971 3.79189C14.5272 3.56177 14.8774 3.45172 15.1976 3.52175C15.2676 3.53176 15.3276 3.55177 15.3877 3.58178C15.4477 3.60179 15.5077 3.63181 15.5678 3.67183C15.6178 3.70184 15.6678 3.75187 15.7178 3.79189C15.8079 3.89194 15.8779 3.99199 15.9279 4.12205C15.978 4.24211 16.008 4.37218 16.008 4.50224C16.008 4.63231 15.978 4.76237 15.9279 4.88243Z" fill="white"/>
</svg>
