<svg width="20" height="18" viewBox="0 0 20 18" fill="none" xmlns="http://www.w3.org/2000/svg">
<path fill-rule="evenodd" clip-rule="evenodd" d="M5.34884 0C3.84654 0 2.48805 0.37547 1.50201 1.29107C0.506623 2.21537 0 3.58795 0 5.34884V11.8605C0 13.6214 0.506623 14.994 1.50201 15.9182C2.48805 16.8339 3.84654 17.2093 5.34884 17.2093H14.6512C16.1535 17.2093 17.512 16.8339 18.498 15.9182C19.4934 14.994 20 13.6214 20 11.8605V5.34884C20 3.58795 19.4934 2.21537 18.498 1.29107C17.512 0.37547 16.1535 0 14.6512 0H5.34884ZM16.7242 5.22074C17.029 4.98515 17.0852 4.547 16.8496 4.2421C16.614 3.9372 16.1759 3.88102 15.871 4.11662L10.7109 8.10381C10.2922 8.42744 9.70772 8.42744 9.28893 8.10381L4.12893 4.11662C3.82403 3.88102 3.38588 3.9372 3.15028 4.2421C2.91468 4.547 2.97086 4.98515 3.27576 5.22074L8.43581 9.208C9.35712 9.91981 10.6428 9.91981 11.5641 9.208L16.7242 5.22074Z" fill="white"/>
</svg>
