<svg width="20" height="20" viewBox="0 0 20 20" fill="none" xmlns="http://www.w3.org/2000/svg">
<path fill-rule="evenodd" clip-rule="evenodd" d="M1.61821 1.06967C2.3177 0.383237 3.13543 0 4.03721 0C4.39366 0 4.75638 0.0757023 5.08782 0.23386C5.43028 0.392828 5.74241 0.636214 5.98508 0.985321L8.13981 4.02233C8.33051 4.2875 8.47972 4.54694 8.58772 4.80963C8.6974 5.06707 8.77209 5.35483 8.77209 5.64651C8.77209 6.00639 8.66726 6.35035 8.48093 6.6599C8.3226 6.93753 8.1063 7.20528 7.8564 7.45583L7.2157 8.12182C7.22219 8.13714 7.23089 8.15786 7.24031 8.18186C7.37953 8.42595 7.62606 8.76949 7.9999 9.21154C8.4093 9.68456 8.84353 10.1638 9.312 10.6416C9.80679 11.1271 10.2754 11.5682 10.7487 11.97C11.1961 12.3486 11.5447 12.5899 11.7981 12.7276C11.8186 12.7365 11.8375 12.745 11.8528 12.752L12.4944 12.1189C12.7488 11.8647 13.0216 11.6407 13.3127 11.4852C13.6169 11.3041 13.9486 11.2 14.3163 11.2C14.5953 11.2 14.8709 11.2595 15.1479 11.3728C15.4111 11.4806 15.6687 11.6287 15.9272 11.8045L15.933 11.8085L19.0148 13.9964C19.3447 14.2256 19.6032 14.5158 19.7642 14.8818L19.7689 14.8927L19.7734 14.9037C19.8919 15.2 19.9721 15.521 19.9721 15.8884C19.9721 16.3279 19.8741 16.7737 19.6727 17.2003C19.5701 17.4175 19.45 17.6299 19.3085 17.8363C19.2593 17.908 19.2077 17.9789 19.1535 18.0488C19.0822 18.1408 19.0065 18.2311 18.9262 18.3196C18.727 18.5393 18.5167 18.7389 18.2941 18.9168C17.9414 19.1992 17.5612 19.4249 17.1502 19.5936C16.5044 19.8624 15.8088 20 15.0698 20C14.0106 20 12.9035 19.7508 11.7637 19.2651C10.6405 18.7865 9.52512 18.1452 8.4266 17.3454L8.42567 17.3447C7.32717 16.5424 6.28674 15.6545 5.29511 14.6725L5.29032 14.6677C4.30834 13.6762 3.42025 12.6355 2.62668 11.5455L2.62432 11.5423C1.83697 10.4477 1.19544 9.34233 0.725302 8.23553L0.724437 8.23349C0.248549 7.1033 0 5.99722 0 4.92093C0 4.20636 0.12614 3.51379 0.384056 2.8683C0.646391 2.20235 1.05845 1.59911 1.61821 1.06967Z" fill="white"/>
</svg>
