<svg width="18" height="20" viewBox="0 0 18 20" fill="none" xmlns="http://www.w3.org/2000/svg">
<path d="M9.12812 0.0166745C10.22 6.33595e-08 11.3038 0.00867071 12.387 0C12.423 1.35463 12.9726 2.57387 13.847 3.47696L13.8457 3.47562C14.7868 4.32335 16.0113 4.87294 17.3613 4.96632L17.38 4.96765V8.32655C16.1047 8.29454 14.9055 8.0004 13.8243 7.49483L13.879 7.51751C13.3561 7.26606 12.9139 7.00794 12.4937 6.7198L12.5284 6.74248C12.5204 9.17628 12.5364 11.6101 12.5117 14.0352C12.443 15.2711 12.0321 16.3983 11.3732 17.3394L11.3865 17.3187C10.2847 18.8968 8.49983 19.9326 6.47021 19.994H6.46088C6.37884 19.998 6.28213 20 6.18475 20C5.03088 20 3.95237 19.6785 3.03328 19.1203L3.05996 19.1356C1.38718 18.1291 0.233303 16.407 0.0198704 14.4041L0.0172026 14.3767C0.000528115 13.9598 -0.00747568 13.543 0.00919877 13.1348C0.336018 9.94731 3.0066 7.48149 6.25278 7.48149C6.61762 7.48149 6.97512 7.51284 7.32261 7.5722L7.28526 7.56686C7.30193 8.80011 7.25191 10.034 7.25191 11.2673C6.96978 11.1652 6.6443 11.1059 6.3048 11.1059C5.05889 11.1059 3.99906 11.9022 3.60688 13.0141L3.60088 13.0341C3.51217 13.3189 3.46081 13.6464 3.46081 13.9852C3.46081 14.1226 3.46948 14.2587 3.48549 14.3921L3.48415 14.376C3.70559 15.7407 4.87547 16.7705 6.28613 16.7705C6.32681 16.7705 6.36683 16.7698 6.40685 16.7678H6.40085C7.37664 16.7385 8.2237 16.2136 8.70259 15.4379L8.70926 15.4259C8.88734 15.1778 9.0094 14.8776 9.05008 14.5515L9.05075 14.5421C9.13412 13.0501 9.10077 11.5667 9.10878 10.0747C9.11678 6.7158 9.10077 3.3649 9.12545 0.0146736L9.12812 0.0166745Z" fill="white"/>
</svg>
