<svg width="20" height="20" viewBox="0 0 20 20" fill="none" xmlns="http://www.w3.org/2000/svg">
<path fill-rule="evenodd" clip-rule="evenodd" d="M1.40653 14.8646L0 20L5.25533 18.6219C6.70336 19.4115 8.33356 19.8277 9.99259 19.8283H9.9969C15.4607 19.8283 19.9082 15.382 19.9107 9.91794C19.9116 7.2698 18.8817 4.77984 17.0098 2.90657C15.1378 1.03331 12.6488 0.00134738 9.99704 0C4.53246 0 0.0855588 4.44555 0.0832682 9.90999C0.081169 11.6491 0.537594 13.3581 1.40653 14.8646ZM6.96179 5.339C7.13816 5.34614 7.33353 5.3545 7.5192 5.76693C7.64566 6.04833 7.85827 6.57232 8.02809 6.99084C8.15392 7.30094 8.25625 7.55314 8.28263 7.60584C8.34461 7.72966 8.3857 7.87464 8.30324 8.03969C8.29057 8.06506 8.27888 8.08898 8.26772 8.11181C8.20626 8.23749 8.16088 8.33032 8.05586 8.45267C8.0139 8.50155 7.97053 8.55429 7.92719 8.60697C7.84236 8.7101 7.75769 8.81304 7.68412 8.88652C7.55989 9.00994 7.43054 9.14414 7.57525 9.39193C7.71996 9.63971 8.21701 10.4506 8.95335 11.1071C9.7459 11.8138 10.4341 12.1122 10.7825 12.2633C10.8502 12.2926 10.905 12.3164 10.9453 12.3365C11.1932 12.4603 11.3375 12.4396 11.4821 12.2742C11.6267 12.1089 12.1008 11.5512 12.2662 11.3033C12.4315 11.0554 12.5965 11.0965 12.8236 11.1792C13.0506 11.262 14.2682 11.8611 14.5162 11.9851C14.5649 12.0095 14.6105 12.0314 14.6527 12.0518C14.8251 12.1349 14.9414 12.191 14.9911 12.2742C15.053 12.3779 15.0528 12.8734 14.8465 13.4519C14.6403 14.0303 13.629 14.5882 13.1747 14.6295C13.131 14.6334 13.0875 14.6385 13.0428 14.6438C12.6229 14.6931 12.0932 14.7554 10.2022 14.0097C7.87318 13.0912 6.33812 10.8142 6.02311 10.347C5.99758 10.3091 5.98006 10.2831 5.97079 10.2707L5.96785 10.2668C5.83371 10.0874 4.95944 8.91839 4.95944 7.70891C4.95944 6.56874 5.51974 5.97082 5.77775 5.69548C5.79552 5.67652 5.81186 5.65908 5.82648 5.64311C6.05338 5.39519 6.32178 5.33321 6.48697 5.33321L6.96179 5.339Z" fill="white"/>
</svg>
